<?xml version="1.0" standalone="no"?>
<!DOCTYPE svg PUBLIC "-//W3C//DTD SVG 1.1//EN" "http://www.w3.org/Graphics/SVG/1.1/DTD/svg11.dtd" >
<svg xmlns="http://www.w3.org/2000/svg" xmlns:xlink="http://www.w3.org/1999/xlink" version="1.1">
<metadata>
Created by FontForge 20161013 at Tue Nov 20 00:10:43 2012
 By ,,,
(C)2004 House Industries/Brand Design Co., Inc. All Rights Reserved
</metadata>
<defs>
<font id="NeutrafaceDisplay-Bold" horiz-adv-x="500" >
  <font-face 
    font-family="Neutraface Display Bold"
    font-weight="700"
    font-stretch="normal"
    units-per-em="1000"
    panose-1="2 0 8 3 4 0 0 2 0 4"
    ascent="780"
    descent="-220"
    x-height="342"
    cap-height="680"
    bbox="-63 -257 1125 900"
    underline-thickness="20"
    underline-position="-153"
    unicode-range="U+000D-FB04"
  />
<missing-glyph 
d="M39 680h421v-680h-421v680zM375 128v426l-93 -214zM332 75l-86 199l-87 -199h173zM213 348l-89 206v-410zM249 414l84 191h-167z" />
    <glyph glyph-name=".notdef" 
d="M39 680h421v-680h-421v680zM375 128v426l-93 -214zM332 75l-86 199l-87 -199h173zM213 348l-89 206v-410zM249 414l84 191h-167z" />
    <glyph glyph-name=".null" horiz-adv-x="0" 
 />
    <glyph glyph-name="nonmarkingreturn" unicode="&#xd;" horiz-adv-x="182" 
 />
    <glyph glyph-name="NULL" horiz-adv-x="0" 
 />
    <glyph glyph-name="NULL" horiz-adv-x="0" 
 />
    <glyph glyph-name="space" unicode=" " horiz-adv-x="182" 
 />
    <glyph glyph-name="exclam" unicode="!" horiz-adv-x="230" 
d="M58 680h114l-15 -468h-84zM115 -6q-28 0 -49 19.5t-21 50.5t21 50.5t49 19.5t49 -19.5t21 -50.5t-21 -50.5t-49 -19.5z" />
    <glyph glyph-name="quotedbl" unicode="&#x22;" horiz-adv-x="327" 
d="M185 680h110l-12 -202h-86zM32 680h110l-12 -202h-86z" />
    <glyph glyph-name="numbersign" unicode="#" horiz-adv-x="472" 
d="M61 355v82h81l23 93h86l-24 -93h78l23 93h86l-24 -93h61v-82h-82l-19 -77h64l-3 -82h-82l-22 -87h-86l22 87h-77l-22 -87h-86l22 87h-59v82h80l20 77h-60zM206 355l-19 -77h77l20 77h-78z" />
    <glyph glyph-name="dollar" unicode="$" horiz-adv-x="453" 
d="M194 -7q-35 4 -62.5 15t-49.5 26t-38 33t-27 37l79 52q16 -26 38 -47t60 -29v155q-83 29 -116 66t-33 96q0 57 38.5 95.5t110.5 44.5v85h73v-88q46 -8 77 -29t51 -51l-72 -53q-11 16 -24 28t-32 18v-134q80 -26 119.5 -64t39.5 -101q0 -69 -40.5 -108.5t-118.5 -46.5
v-109h-73v109zM194 452q-29 -5 -40.5 -19t-11.5 -32t9 -33t43 -30v114zM267 79q35 6 48.5 23t13.5 41t-12.5 38.5t-49.5 28.5v-131z" />
    <glyph glyph-name="percent" unicode="%" horiz-adv-x="752" 
d="M170 242q-30 0 -57.5 11t-48 30.5t-33 47t-12.5 59.5t12.5 59.5t33 47t48 30.5t57.5 11t57.5 -11t48 -30.5t33 -47t12.5 -59.5t-12.5 -59.5t-33 -47t-48 -30.5t-57.5 -11zM479 530h103l-309 -530h-103zM582 -9q-30 0 -57.5 11t-48 30.5t-33 47t-12.5 59.5t12.5 59.5
t33 47t48 30.5t57.5 11t57.5 -11t48 -30.5t33 -47t12.5 -59.5t-12.5 -59.5t-33 -47t-48 -30.5t-57.5 -11zM170 327q24 0 42 17t18 46t-18 46t-42 17t-42 -17t-18 -46t18 -46t42 -17zM582 76q24 0 42 17t18 46t-18 46t-42 17t-42 -17t-18 -46t18 -46t42 -17z" />
    <glyph glyph-name="ampersand" unicode="&#x26;" horiz-adv-x="656" 
d="M467 221q24 60 24 147h98q0 -70 -15 -128t-41 -103l107 -137h-128l-45 58q-39 -33 -87 -50t-102 -17q-58 0 -104 15t-77.5 41.5t-48 63.5t-16.5 81q0 39 12 69.5t33.5 55t52 46t67.5 42.5l-6 8q-28 37 -37 66.5t-9 61.5q0 30 11 57t31.5 47t50 32t67.5 12
q74 0 114.5 -40.5t40.5 -103.5q0 -47 -31 -84t-92 -73zM286 454q37 22 55 42t18 49q0 21 -13.5 37.5t-40.5 16.5q-29 0 -43 -17.5t-14 -40.5q0 -26 9.5 -44t24.5 -38zM248 339q-57 -32 -81 -66t-24 -81q0 -49 35 -78.5t101 -29.5q77 0 130 48z" />
    <glyph glyph-name="quotesingle" unicode="'" horiz-adv-x="174" 
d="M32 680h110l-12 -202h-86z" />
    <glyph glyph-name="parenleft" unicode="(" horiz-adv-x="306" 
d="M224 -137q-33 33 -64.5 75t-57 94.5t-41 117t-15.5 141.5t15.5 141t41 117t57 95t64.5 75l62 -51q-30 -35 -54 -75t-41.5 -86t-27 -99.5t-9.5 -116.5q0 -126 36.5 -216.5t95.5 -160.5l-62 -51v0z" />
    <glyph glyph-name="parenright" unicode=")" horiz-adv-x="306" 
d="M20 -86q59 70 95.5 160.5t36.5 216.5q0 63 -9.5 116.5t-27 99.5t-41.5 86t-54 75l62 51q33 -33 64.5 -75t57 -94.5t41 -117t15.5 -141.5t-15.5 -141t-41 -117t-57 -95t-64.5 -75z" />
    <glyph glyph-name="asterisk" unicode="*" horiz-adv-x="376" 
d="M158 495l-67 -52l-40 69l81 33l-81 33l40 69l67 -54l-11 87h82l-12 -87l68 54l40 -69l-82 -33l82 -33l-40 -69l-67 52l11 -85h-82z" />
    <glyph glyph-name="plus" unicode="+" horiz-adv-x="361" 
d="M227 110h-93v104h-98v90h98v104h93v-104h98v-90h-98v-104z" />
    <glyph glyph-name="comma" unicode="," horiz-adv-x="212" 
d="M75 1q-17 8 -28 24.5t-11 38.5q0 31 21 50.5t49 19.5t49 -19.5t21 -50.5q0 -19 -7.5 -35t-18.5 -33l-55 -92h-55z" />
    <glyph glyph-name="hyphen" unicode="-" horiz-adv-x="250" 
d="M33 256h184v-91h-184v91z" />
    <glyph glyph-name="period" unicode="." horiz-adv-x="212" 
d="M106 -6q-28 0 -49 19.5t-21 50.5t21 50.5t49 19.5t49 -19.5t21 -50.5t-21 -50.5t-49 -19.5z" />
    <glyph glyph-name="slash" unicode="/" horiz-adv-x="416" 
d="M286 710h103l-287 -838h-103z" />
    <glyph glyph-name="zero" unicode="0" horiz-adv-x="616" 
d="M308 -9q-56 0 -106 21t-88 58t-60.5 87t-22.5 108t22.5 108t60.5 87t88 57.5t106 20.5t106 -20.5t88 -57.5t60.5 -87t22.5 -108t-22.5 -108t-60.5 -87t-88 -58t-106 -21zM308 83q37 0 68 13t53.5 37t35 57.5t12.5 74.5q0 40 -12.5 73.5t-35 57.5t-53.5 37t-68 13t-68 -13
t-53.5 -37t-35 -57.5t-12.5 -73.5q0 -41 12.5 -74.5t35 -57.5t53.5 -37t68 -13z" />
    <glyph glyph-name="one" unicode="1" horiz-adv-x="294" 
d="M112 442h-83v88h187v-530h-104v442z" />
    <glyph glyph-name="two" unicode="2" horiz-adv-x="442" 
d="M2 5l189 206q22 24 40.5 44t32 39.5t21 39t7.5 40.5q0 32 -18.5 52t-55.5 20q-36 0 -61 -23.5t-36 -61.5l-91 35q22 69 72.5 105.5t116.5 36.5q86 0 132.5 -45t46.5 -117q0 -52 -31.5 -99t-85.5 -105l-78 -84h205v-88h-406v5z" />
    <glyph glyph-name="three" unicode="3" horiz-adv-x="466" 
d="M228 -9q-43 0 -78 12t-61.5 31t-44.5 42t-28 46l88 45q17 -38 47.5 -62t76.5 -24q48 0 75.5 25.5t27.5 75.5q0 49 -33.5 73t-78.5 24q-29 0 -48.5 -3.5t-33.5 -8.5l-8 15l130 160h-201v88h372v-5l-142 -177q30 -3 57 -16t48 -34.5t33 -51t12 -66.5q0 -39 -13 -73.5
t-39 -60t-65.5 -40.5t-92.5 -15z" />
    <glyph glyph-name="four" unicode="4" horiz-adv-x="486" 
d="M459 169v-83h-69v-86h-101v86h-266v70l361 391h6v-378h69zM289 320l-139 -151h139v151z" />
    <glyph glyph-name="five" unicode="5" horiz-adv-x="448" 
d="M216 -9q-38 0 -70.5 10t-57.5 26.5t-43 37.5t-28 42l87 45q15 -30 42 -50.5t70 -20.5q46 0 71.5 24.5t25.5 69.5t-29 67.5t-83 22.5q-47 0 -76.5 -12t-48.5 -26l-5 3v300h312v-88h-223v-96q10 3 27 5.5t42 2.5q41 0 76 -13.5t60.5 -37.5t40 -57.5t14.5 -72.5t-13 -72
t-38.5 -57.5t-63.5 -38.5t-89 -14z" />
    <glyph glyph-name="six" unicode="6" horiz-adv-x="467" 
d="M233 -9q-41 0 -78 12.5t-64.5 36t-43.5 58t-16 78.5q0 42 18 84t55 90l138 180h114l-138 -178q15 5 37 5q38 0 71 -13t57.5 -36.5t38.5 -56.5t14 -73q0 -44 -16 -78.5t-44 -58.5t-64.5 -37t-78.5 -13zM233 82q45 0 70 27t25 69t-26.5 70t-69.5 28q-48 0 -72 -27.5
t-24 -70.5q0 -42 26 -69t71 -27z" />
    <glyph glyph-name="seven" unicode="7" horiz-adv-x="453" 
d="M283 442h-254v88h402v-5l-39 -83l-209 -442h-110z" />
    <glyph glyph-name="eight" unicode="8" horiz-adv-x="454" 
d="M133 305q-24 14 -40.5 38.5t-16.5 60.5q0 26 10.5 50t31 43t49.5 30t65 11t65 -11t49.5 -30t31 -43t10.5 -50q0 -36 -16.5 -60.5t-41.5 -38.5q46 -19 75 -54.5t29 -88.5q0 -37 -14.5 -68t-41.5 -54t-64 -36t-82 -13t-82 13t-64 36t-41.5 54t-14.5 68q0 53 29 88.5
t74 54.5zM232 343q25 0 39.5 15.5t14.5 39.5t-14.5 39t-39.5 15t-39.5 -15t-14.5 -39t14.5 -39.5t39.5 -15.5zM232 81q44 0 69.5 26t25.5 65t-25.5 64.5t-69.5 25.5t-69.5 -25.5t-25.5 -64.5t25.5 -65t69.5 -26z" />
    <glyph glyph-name="nine" unicode="9" horiz-adv-x="467" 
d="M250 178q-7 -3 -16.5 -4.5t-16.5 -1.5q-39 0 -72.5 13t-59 36.5t-40 56.5t-14.5 73q0 44 16 78.5t44 58.5t64.5 37t78.5 13q41 0 78 -12.5t64.5 -36t43.5 -58t16 -78.5q0 -42 -19 -82.5t-54 -91.5l-124 -179h-114zM235 253q48 0 71.5 27.5t23.5 70.5q0 42 -25.5 69
t-70.5 27t-70.5 -27t-25.5 -69t26 -70t71 -28z" />
    <glyph glyph-name="colon" unicode=":" horiz-adv-x="222" 
d="M111 196q-28 0 -49 19.5t-21 50.5t21 50.5t49 19.5t49 -19.5t21 -50.5t-21 -50.5t-49 -19.5zM111 -6q-28 0 -49 19.5t-21 50.5t21 50.5t49 19.5t49 -19.5t21 -50.5t-21 -50.5t-49 -19.5z" />
    <glyph glyph-name="semicolon" unicode=";" horiz-adv-x="222" 
d="M111 196q-28 0 -49 19.5t-21 50.5t21 50.5t49 19.5t49 -19.5t21 -50.5t-21 -50.5t-49 -19.5zM80 1q-17 8 -28 24.5t-11 38.5q0 31 21 50.5t49 19.5t49 -19.5t21 -50.5q0 -19 -7.5 -35t-18.5 -33l-55 -92h-55z" />
    <glyph glyph-name="less" unicode="&#x3c;" horiz-adv-x="324" 
d="M26 242v4l263 151v-91l-110 -63l110 -63v-91z" />
    <glyph glyph-name="equal" unicode="=" horiz-adv-x="361" 
d="M36 369h289v-90h-289v90zM36 234h289v-90h-289v90z" />
    <glyph glyph-name="greater" unicode="&#x3e;" horiz-adv-x="324" 
d="M35 180l110 63l-110 63v91l263 -153v-4l-263 -151v91z" />
    <glyph glyph-name="question" unicode="?" horiz-adv-x="453" 
d="M156 387h36q33 0 56.5 9t38 24.5t21 35t6.5 40.5q0 40 -26.5 70.5t-72.5 30.5q-43 0 -70 -21.5t-47 -55.5l-82 48q12 24 30.5 46t43.5 38.5t56 26.5t68 10q49 0 87.5 -15.5t65.5 -41.5t41 -61.5t14 -74.5q0 -78 -41.5 -128.5t-126.5 -64.5v-96h-98v180zM204 -6
q-28 0 -49 19.5t-21 50.5t21 50.5t49 19.5t49 -19.5t21 -50.5t-21 -50.5t-49 -19.5z" />
    <glyph glyph-name="at" unicode="@" horiz-adv-x="773" 
d="M407 -188q-83 0 -153 26t-121 73t-79.5 112.5t-28.5 144.5t30 144.5t81 112.5t117.5 73t139.5 26q77 0 142 -24.5t112 -68t73.5 -104t26.5 -132.5q0 -53 -11.5 -91.5t-32 -64t-48.5 -38t-62 -12.5q-87 0 -118 62q-21 -34 -50 -47t-68 -13q-32 0 -60 13t-49 35.5t-33 53.5
t-12 68t12 68.5t33 54.5t49 36t60 13q37 0 58.5 -12.5t35.5 -32.5v36h101v-203q0 -29 11.5 -41.5t31.5 -12.5q25 0 44.5 30t19.5 96q0 61 -19 107.5t-54 78t-84.5 48t-111.5 16.5q-60 0 -109.5 -20t-85 -56.5t-55 -87t-19.5 -111.5t19.5 -111.5t56.5 -87t89.5 -56.5
t117.5 -20q37 0 73 6.5t67 22.5l40 -71q-38 -22 -82.5 -30.5t-94.5 -8.5zM380 78q35 0 53.5 22.5t18.5 60.5q0 39 -18.5 62t-53.5 23t-53 -23t-18 -62q0 -38 18 -60.5t53 -22.5z" />
    <glyph glyph-name="A" unicode="A" horiz-adv-x="645" 
d="M129 0h-108l298 694h6l299 -694h-113l-39 95h-304zM321 459l-113 -269h224z" />
    <glyph glyph-name="B" unicode="B" horiz-adv-x="594" 
d="M74 680h241q51 0 88.5 -13.5t62 -37t36.5 -55.5t12 -68q0 -45 -22 -77.5t-60 -51.5q60 -17 95 -61.5t35 -110.5q0 -43 -14 -80.5t-42 -65t-71.5 -43.5t-101.5 -16h-259v680zM309 413q56 0 77.5 24t21.5 66q0 39 -21.5 62t-77.5 23h-129v-175h129zM327 92q70 0 98 32
t28 85t-30.5 85.5t-100.5 32.5h-142v-235h147z" />
    <glyph glyph-name="C" unicode="C" horiz-adv-x="710" 
d="M385 -9q-73 0 -135.5 26.5t-109 73t-73 110.5t-26.5 139t27 139t74 110.5t110 73t136 26.5q95 0 161 -34.5t111 -97.5l-82 -58q-34 46 -79.5 69.5t-113.5 23.5q-51 0 -93.5 -19t-73.5 -53t-48.5 -80t-17.5 -100q0 -55 18 -101.5t49.5 -80t75 -52t94.5 -18.5
q66 0 116 24.5t88 74.5l83 -57q-53 -70 -122 -104.5t-169 -34.5z" />
    <glyph glyph-name="D" unicode="D" horiz-adv-x="665" 
d="M74 680h192q83 0 149.5 -25t113 -70t71 -107.5t24.5 -137.5t-24.5 -137.5t-71 -107.5t-112.5 -70t-150 -25h-192v680zM260 95q66 0 114 18t78.5 50.5t45.5 77.5t15 99t-15 99t-45.5 77.5t-78.5 50.5t-114 18h-79v-490h79z" />
    <glyph glyph-name="E" unicode="E" horiz-adv-x="572" 
d="M74 680h433v-95h-326v-282h289v-93h-289v-115h340v-95h-447v680z" />
    <glyph glyph-name="F" unicode="F" horiz-adv-x="540" 
d="M74 680h424v-95h-317v-282h289v-95h-289v-208h-107v680z" />
    <glyph glyph-name="G" unicode="G" horiz-adv-x="723" 
d="M405 -9q-78 0 -145 26.5t-115.5 73t-76 110.5t-27.5 139t27 139t74.5 110.5t111 73t136.5 26.5q47 0 85.5 -8t70 -22.5t56.5 -34t46 -43.5l-74 -70q-15 17 -32.5 31.5t-39.5 25.5t-50 17.5t-65 6.5q-52 0 -95 -19t-74 -53t-48.5 -80t-17.5 -100t17.5 -100t50.5 -80
t80 -53t105 -19q56 0 96 11.5t69 31.5v77h-182v95h281v-223q-21 -18 -47 -34t-58.5 -28t-71.5 -19.5t-87 -7.5z" />
    <glyph glyph-name="H" unicode="H" horiz-adv-x="688" 
d="M507 680h107v-680h-107v208h-326v-208h-107v680h107v-377h326v377z" />
    <glyph glyph-name="I" unicode="I" horiz-adv-x="261" 
d="M77 680h107v-680h-107v680z" />
    <glyph glyph-name="J" unicode="J" horiz-adv-x="475" 
d="M212 -9q-39 0 -70 9t-55 25t-42 37t-30 45l88 54q18 -32 40.5 -52.5t64.5 -20.5q39 0 64 22t25 83v487h108v-489q0 -51 -14.5 -88.5t-40 -62t-61 -37t-77.5 -12.5z" />
    <glyph glyph-name="K" unicode="K" horiz-adv-x="616" 
d="M446 680h121l-241 -305l277 -375h-130l-217 294l-75 -92v-202h-107v680h107v-337z" />
    <glyph glyph-name="L" unicode="L" horiz-adv-x="515" 
d="M74 680h107v-585h300v-95h-407v680z" />
    <glyph glyph-name="M" unicode="M" horiz-adv-x="818" 
d="M74 694h5l332 -383l328 383h5v-694h-101v441l-232 -277h-5l-231 277v-441h-101v694z" />
    <glyph glyph-name="N" unicode="N" horiz-adv-x="691" 
d="M174 447v-447h-100v690h8l436 -457v447h100v-690h-8z" />
    <glyph glyph-name="O" unicode="O" horiz-adv-x="784" 
d="M392 -9q-73 0 -137 26.5t-111.5 73t-75 110.5t-27.5 139t27.5 139t75 110.5t111.5 73t137 26.5t137 -26.5t111.5 -73t75 -110.5t27.5 -139t-27.5 -139t-75 -110.5t-111.5 -73t-137 -26.5zM392 88q53 0 97 19t76 53t49.5 80t17.5 100t-17.5 100t-49.5 80t-76 53t-97 19
t-97 -19t-76 -53t-49.5 -80t-17.5 -100t17.5 -100t49.5 -80t76 -53t97 -19z" />
    <glyph glyph-name="P" unicode="P" horiz-adv-x="577" 
d="M181 0h-107v680h174q70 0 124 -18.5t91 -52.5t56 -82t19 -107t-19 -106.5t-56 -81.5t-91 -52.5t-124 -18.5h-67v-161zM244 256q98 0 141 43.5t43 120.5q0 78 -43 121.5t-141 43.5h-63v-329h63z" />
    <glyph glyph-name="Q" unicode="Q" horiz-adv-x="784" 
d="M443 -124h-102v119q-64 9 -119 38.5t-95 74.5t-63 104t-23 128q0 75 27.5 139t75 110.5t111.5 72.5t137 26t137 -26t111.5 -72.5t75 -110.5t27.5 -139q0 -69 -23 -128t-63 -104t-95 -74.5t-119 -38.5v-119zM341 199h102v-109q42 9 77 31t60 54.5t38.5 74.5t13.5 90
q0 54 -17.5 100t-49.5 79.5t-76 52.5t-97 19t-97 -19t-76 -52.5t-49.5 -79.5t-17.5 -100q0 -48 13.5 -90t38.5 -74.5t60 -54.5t77 -31v109z" />
    <glyph glyph-name="R" unicode="R" horiz-adv-x="586" 
d="M540 0h-127l-116 165q-23 -3 -49 -3h-67v-162h-107v680h174q70 0 124 -18.5t91 -52.5t56 -82t19 -107q0 -79 -34.5 -137.5t-101.5 -89.5zM244 254q98 0 141 44t43 122t-43 121.5t-141 43.5h-63v-331h63z" />
    <glyph glyph-name="S" unicode="S" horiz-adv-x="531" 
d="M112 179q48 -92 154 -92q54 0 87 23.5t33 65.5q0 24 -8.5 41t-23 29.5t-34.5 22.5t-42 20l-47 21q-38 16 -68.5 35t-53 43t-34.5 54t-12 70q0 39 14 71.5t38.5 56t59.5 36.5t77 13q63 0 110 -24t84 -83l-81 -53q-20 33 -46.5 49.5t-64.5 16.5q-42 0 -64.5 -22t-22.5 -57
q0 -20 6.5 -35t19.5 -27t33 -23t48 -23l47 -21q39 -17 70.5 -35.5t54 -42.5t34.5 -55.5t12 -74.5q0 -47 -17 -82t-47 -58.5t-71.5 -35.5t-89.5 -12q-87 0 -148.5 38.5t-96.5 104.5z" />
    <glyph glyph-name="T" unicode="T" horiz-adv-x="559" 
d="M226 585h-202v95h511v-95h-202v-585h-107v585z" />
    <glyph glyph-name="U" unicode="U" horiz-adv-x="659" 
d="M330 -9q-56 0 -103.5 15.5t-82 46.5t-54.5 78t-20 109v440h107v-434q0 -82 39 -120t114 -38q74 0 113 38t39 120v434h107v-440q0 -62 -20 -109t-54.5 -78t-82 -46.5t-102.5 -15.5z" />
    <glyph glyph-name="V" unicode="V" horiz-adv-x="645" 
d="M21 680h113l194 -457l188 457h108l-294 -690h-6z" />
    <glyph glyph-name="W" unicode="W" horiz-adv-x="940" 
d="M20 680h113l146 -434l192 448h6l193 -448l143 434h106l-238 -689h-6l-201 474l-206 -474h-5z" />
    <glyph glyph-name="X" unicode="X" horiz-adv-x="641" 
d="M64 680h121l136 -215l136 215h113l-193 -304l238 -376h-121l-177 280l-177 -280h-113l233 369z" />
    <glyph glyph-name="Y" unicode="Y" horiz-adv-x="654" 
d="M21 680h118l193 -355l190 355h112l-250 -463v-217h-107v216z" />
    <glyph glyph-name="Z" unicode="Z" horiz-adv-x="598" 
d="M29 6l55 89l301 485l3 5h-304v95h476v-6l-55 -89l-301 -486l-3 -4h348v-95h-520v6z" />
    <glyph glyph-name="bracketleft" unicode="[" horiz-adv-x="307" 
d="M74 710h201v-87h-98v-664h98v-87h-201v838z" />
    <glyph glyph-name="backslash" unicode="\" horiz-adv-x="416" 
d="M27 710h103l287 -838h-103z" />
    <glyph glyph-name="bracketright" unicode="]" horiz-adv-x="307" 
d="M32 -41h98v664h-98v87h201v-838h-201v87z" />
    <glyph glyph-name="asciicircum" unicode="^" horiz-adv-x="401" 
d="M114 407h-98l182 283h6l181 -283h-99l-86 137z" />
    <glyph glyph-name="underscore" unicode="_" horiz-adv-x="270" 
d="M-2 -37h274v-91h-274v91z" />
    <glyph glyph-name="grave" unicode="`" 
d="M128 538h113l50 -152h-78z" />
    <glyph glyph-name="a" unicode="a" horiz-adv-x="380" 
d="M243 205q-1 35 -18.5 48.5t-44.5 13.5t-47 -10t-35 -27l-61 56q57 65 149 65q73 0 115 -37.5t42 -113.5v-200h-100v31q-34 -40 -96 -40q-26 0 -49 6.5t-40.5 20.5t-27.5 35.5t-10 51.5q0 25 10.5 44t28.5 31.5t42.5 18.5t52.5 6h89zM159 137q-20 0 -30 -9t-10 -24
q0 -14 10.5 -23.5t35.5 -9.5q34 0 56 15.5t22 36.5v14h-84z" />
    <glyph glyph-name="b" unicode="b" horiz-adv-x="435" 
d="M248 -9q-39 0 -65.5 12.5t-40.5 35.5v-39h-100v710h100v-407q15 23 41 35.5t65 12.5q33 0 62.5 -13.5t51.5 -37.5t34.5 -57t12.5 -72t-12.5 -72t-34.5 -57t-51.5 -37.5t-62.5 -13.5zM222 79q38 0 61 25t23 67t-23 67t-61 25t-60 -25t-22 -67t22 -67t60 -25z" />
    <glyph glyph-name="c" unicode="c" horiz-adv-x="377" 
d="M208 -9q-39 0 -72.5 13.5t-57.5 37.5t-38 57t-14 72t14 72t38 57t57 37.5t71 13.5q52 0 86 -16.5t57 -43.5l-66 -61q-13 14 -32 24t-42 10q-37 0 -58.5 -27t-21.5 -66t21.5 -66t60.5 -27q29 0 47.5 11.5t30.5 24.5l66 -60q-25 -29 -59 -46t-88 -17z" />
    <glyph glyph-name="d" unicode="d" horiz-adv-x="435" 
d="M187 -9q-33 0 -62.5 13.5t-51.5 37.5t-34.5 57t-12.5 72t12.5 72t34.5 57t51.5 37.5t62.5 13.5q39 0 65.5 -12.5t40.5 -35.5v407h100v-710h-100v39q-14 -23 -40.5 -35.5t-65.5 -12.5zM213 79q38 0 60 25t22 67t-22 67t-60 25t-61 -25t-23 -67t23 -67t61 -25z" />
    <glyph glyph-name="e" unicode="e" horiz-adv-x="416" 
d="M130 137q8 -29 29.5 -45.5t59.5 -16.5q33 0 54 10.5t35 22.5l60 -60q-23 -25 -58 -41t-89 -16q-45 0 -81 13.5t-61.5 37.5t-39 57t-13.5 72t14.5 72t39 57t58.5 37.5t73 13.5q45 0 80 -16.5t58 -45.5t34 -68t8 -84h-261zM286 207q-5 26 -24 43t-51 17q-31 0 -51.5 -15.5
t-28.5 -44.5h155z" />
    <glyph glyph-name="f" unicode="f" horiz-adv-x="260" 
d="M159 0h-100v259h-40v83h40v248q0 64 30.5 96t84.5 32q36 0 58.5 -10.5t38.5 -28.5l-56 -63q-11 14 -31 14q-10 0 -17.5 -8.5t-7.5 -30.5v-249h82v-83h-82v-259z" />
    <glyph glyph-name="g" unicode="g" horiz-adv-x="395" 
d="M368 342v-76h-49q6 -11 10 -24t4 -27q0 -30 -11 -55t-30.5 -43t-46.5 -28t-58 -10q-36 0 -67 13q-9 -9 -9 -22q0 -7 3 -12.5t12 -9t27 -6.5t48 -4q48 -3 81.5 -12.5t54 -26t29.5 -39t9 -50.5q0 -58 -43.5 -95.5t-138.5 -37.5q-92 0 -140 33.5t-48 87.5q0 36 18 57t49 32
q-22 10 -33 29t-11 42q0 48 47 70q-16 17 -25 39t-9 48q0 30 11 55t30.5 43t46 28t58.5 10t56 -9h125zM187 158q27 0 43 15.5t16 41.5t-16 41.5t-43 15.5t-43 -15.5t-16 -41.5t16 -41.5t43 -15.5zM193 -138q45 0 64 12.5t19 32.5t-20 31t-79 11q-38 0 -58.5 -9t-20.5 -33
q0 -21 24 -33t71 -12z" />
    <glyph glyph-name="h" unicode="h" horiz-adv-x="413" 
d="M40 710h100v-412q17 27 44 40t63 13q57 0 93 -37.5t36 -106.5v-207h-100v200q0 29 -15 45t-46 16q-36 0 -55.5 -19.5t-19.5 -57.5v-184h-100v710z" />
    <glyph glyph-name="i" unicode="i" horiz-adv-x="184" 
d="M92 406q-25 0 -44 18t-19 45t19 45t44 18q26 0 44.5 -18t18.5 -45t-18.5 -45t-44.5 -18zM42 342h100v-342h-100v342z" />
    <glyph glyph-name="j" unicode="j" horiz-adv-x="184" 
d="M92 406q-25 0 -44 18t-19 45t19 45t44 18q26 0 44.5 -18t18.5 -45t-18.5 -45t-44.5 -18zM32 -222q-36 0 -58.5 11t-36.5 27l49 61q6 -5 13.5 -9t15.5 -4q27 0 27 31v447h100v-444q0 -58 -28.5 -89t-81.5 -31z" />
    <glyph glyph-name="k" unicode="k" horiz-adv-x="389" 
d="M140 0h-100v710h100v-501l112 133h116l-122 -140l136 -202h-119l-84 126l-39 -44v-82z" />
    <glyph glyph-name="l" unicode="l" horiz-adv-x="184" 
d="M42 710h100v-710h-100v710z" />
    <glyph glyph-name="m" unicode="m" horiz-adv-x="621" 
d="M40 342h100v-39q31 48 96 48q68 0 97 -58q42 58 124 58q60 0 93.5 -38.5t33.5 -103.5v-209h-100v199q0 29 -11.5 45.5t-43.5 16.5q-31 0 -49 -18.5t-18 -58.5v-184h-100v199q0 29 -11.5 45.5t-43.5 16.5q-35 0 -51 -20.5t-16 -56.5v-184h-100v342z" />
    <glyph glyph-name="n" unicode="n" horiz-adv-x="410" 
d="M40 342h100v-44q17 28 44 40.5t63 12.5q57 0 93 -37.5t36 -106.5v-207h-100v200q0 29 -15 45t-46 16q-36 0 -55.5 -19.5t-19.5 -57.5v-184h-100v342z" />
    <glyph glyph-name="o" unicode="o" horiz-adv-x="426" 
d="M213 -9q-39 0 -73.5 13.5t-59.5 37.5t-39.5 57t-14.5 72t14.5 72t39.5 57t59.5 37.5t73.5 13.5t73.5 -13.5t59.5 -37.5t39.5 -57t14.5 -72t-14.5 -72t-39.5 -57t-59.5 -37.5t-73.5 -13.5zM213 76q39 0 61.5 26.5t22.5 68.5t-22.5 68.5t-61.5 26.5t-61.5 -26.5
t-22.5 -68.5t22.5 -68.5t61.5 -26.5z" />
    <glyph glyph-name="p" unicode="p" horiz-adv-x="435" 
d="M42 342h100v-39q14 23 40.5 35.5t65.5 12.5q33 0 62.5 -13.5t51.5 -37.5t34.5 -57t12.5 -72t-12.5 -72t-34.5 -57t-51.5 -37.5t-62.5 -13.5q-39 0 -65.5 12.5t-40.5 35.5v-251h-100v554zM222 79q38 0 61 25t23 67t-23 67t-61 25t-60 -25t-22 -67t22 -67t60 -25z" />
    <glyph glyph-name="q" unicode="q" horiz-adv-x="435" 
d="M293 39q-14 -23 -40.5 -35.5t-65.5 -12.5q-33 0 -62.5 13.5t-51.5 37.5t-34.5 57t-12.5 72t12.5 72t34.5 57t51.5 37.5t62.5 13.5q39 0 65.5 -12.5t40.5 -35.5v39h100v-554h-100v251zM213 79q38 0 60 25t22 67t-22 67t-60 25t-61 -25t-23 -67t23 -67t61 -25z" />
    <glyph glyph-name="r" unicode="r" horiz-adv-x="302" 
d="M40 342h100v-53q17 35 44 48.5t54 13.5q18 0 31 -4.5t23 -10.5l-32 -86q-20 11 -43 11q-36 0 -56.5 -23t-20.5 -77v-161h-100v342z" />
    <glyph glyph-name="s" unicode="s" horiz-adv-x="327" 
d="M164 -9q-43 0 -83 17t-71 51l63 56q36 -43 89 -43q27 0 38.5 7t11.5 18q0 12 -12 19t-54 16q-54 11 -83.5 37t-29.5 74t34 78t92 30q41 0 70.5 -12t55.5 -35l-53 -61q-13 13 -31 20.5t-39 7.5q-20 0 -29.5 -7t-9.5 -17q0 -13 13.5 -19.5t56.5 -14.5q58 -11 86 -39t28 -70
q0 -52 -36 -82.5t-107 -30.5z" />
    <glyph glyph-name="t" unicode="t" horiz-adv-x="268" 
d="M19 259v83h40v223h100v-223h80v-83h-80v-139q0 -26 7.5 -34.5t21.5 -8.5q9 0 16.5 3.5t13.5 8.5l39 -70q-13 -11 -33.5 -19.5t-52.5 -8.5q-49 0 -80.5 28t-31.5 99v141h-40z" />
    <glyph glyph-name="u" unicode="u" horiz-adv-x="413" 
d="M166 -9q-57 0 -93 37.5t-36 106.5v207h100v-200q0 -29 15 -45t46 -16q36 0 55.5 19.5t19.5 57.5v184h100v-342h-100v44q-17 -28 -44 -40.5t-63 -12.5z" />
    <glyph glyph-name="v" unicode="v" horiz-adv-x="379" 
d="M3 342h112l82 -166l79 166h100l-183 -351h-4z" />
    <glyph glyph-name="w" unicode="w" horiz-adv-x="543" 
d="M3 342h112l66 -162l91 171h3l96 -171l70 162h99l-160 -351h-4l-103 193l-108 -193h-4z" />
    <glyph glyph-name="x" unicode="x" horiz-adv-x="392" 
d="M24 342h114l61 -85l61 85h107l-116 -158l132 -184h-114l-76 106l-77 -106h-107l131 180z" />
    <glyph glyph-name="y" unicode="y" horiz-adv-x="379" 
d="M3 342h112l82 -197l80 197h99l-231 -554h-100l102 243z" />
    <glyph glyph-name="z" unicode="z" horiz-adv-x="346" 
d="M15 4l159 255h-136v83h289v-4l-158 -255h149v-83h-303v4z" />
    <glyph glyph-name="braceleft" unicode="{" horiz-adv-x="348" 
d="M260 -128q-25 0 -50 5t-45 20t-32.5 41.5t-12.5 70.5v138q0 36 -13.5 49.5t-39.5 13.5h-45v87h45q27 0 40 13.5t13 49.5v213q0 43 12.5 70t32.5 42t45 20t50 5h56v-87h-51q-21 0 -31.5 -10.5t-10.5 -36.5v-237q0 -42 -19.5 -61t-48.5 -24q29 -5 48.5 -24.5t19.5 -60.5
v-163q0 -26 10.5 -36.5t31.5 -10.5h51v-87h-56v0z" />
    <glyph glyph-name="bar" unicode="|" horiz-adv-x="244" 
d="M70 710h104v-838h-104v838z" />
    <glyph glyph-name="braceright" unicode="}" horiz-adv-x="348" 
d="M32 -41h51q21 0 31.5 10.5t10.5 36.5v163q0 40 19.5 60t48.5 25q-29 5 -48.5 24.5t-19.5 60.5v237q0 26 -10.5 36.5t-31.5 10.5h-51v87h56q25 0 50 -5.5t45 -20t32.5 -41.5t12.5 -70v-213q0 -36 13.5 -49.5t39.5 -13.5h45v-87h-45q-26 0 -39.5 -13.5t-13.5 -49.5v-138
q0 -44 -12.5 -70.5t-32.5 -41.5t-45 -20t-50 -5h-56v87z" />
    <glyph glyph-name="asciitilde" unicode="~" horiz-adv-x="362" 
d="M233 218q-18 0 -31.5 4.5t-24.5 10t-20.5 10t-19.5 4.5q-9 0 -16.5 -5.5t-12.5 -22.5l-78 10q8 53 35.5 82.5t63.5 29.5q18 0 31.5 -4.5t24.5 -10t20.5 -10t19.5 -4.5q9 0 16.5 5.5t12.5 22.5l77 -10q-8 -53 -35 -82.5t-63 -29.5z" />
    <glyph glyph-name="nonbreakingspace" unicode="&#xa0;" horiz-adv-x="182" 
 />
    <glyph glyph-name="exclamdown" unicode="&#xa1;" horiz-adv-x="230" 
d="M115 546q-28 0 -49 19.5t-21 50.5t21 50.5t49 19.5t49 -19.5t21 -50.5t-21 -50.5t-49 -19.5zM73 468h84l15 -468h-114z" />
    <glyph glyph-name="cent" unicode="&#xa2;" horiz-adv-x="382" 
d="M175 -5q-32 6 -59.5 22t-47.5 39t-31 52t-11 63t11 63.5t31 52.5t47.5 38.5t59.5 21.5v95h73v-93q39 -5 65 -22t45 -41l-66 -57q-15 23 -44 33v-183q17 5 28.5 13.5t20.5 17.5l65 -56q-21 -24 -48.5 -40t-65.5 -21v-99h-73v101zM175 258q-23 -11 -35.5 -33.5t-12.5 -53.5
q0 -32 12.5 -54t35.5 -33v174z" />
    <glyph glyph-name="sterling" unicode="&#xa3;" horiz-adv-x="496" 
d="M56 215v79h49q-10 20 -16 42t-6 45q0 31 12 59t35.5 50t57 35t76.5 13q60 0 104.5 -23.5t76.5 -76.5l-82 -51q-17 28 -41.5 43.5t-56.5 15.5q-37 0 -56.5 -20.5t-19.5 -50.5q0 -22 6 -41.5t15 -39.5h147v-79h-110q8 -20 13.5 -41.5t5.5 -46.5q0 -5 -0.5 -10.5t-1.5 -10.5
q18 -11 36 -17.5t38 -6.5q28 0 44.5 10t34.5 28l63 -64q-23 -27 -57.5 -46t-80.5 -19q-39 0 -67 12.5t-50 29.5q-20 -19 -47 -30.5t-59 -11.5q-48 0 -77 26.5t-29 67.5t28.5 64t70.5 23q17 0 31.5 -3.5t28.5 -9.5q-4 14 -9.5 28t-13.5 28h-93zM167 84q-24 21 -47 21
q-31 0 -31 -23q0 -11 9 -17.5t23 -6.5q34 0 46 26z" />
    <glyph glyph-name="currency" unicode="&#xa4;" horiz-adv-x="490" 
d="M245 81q-27 0 -51.5 6.5t-45.5 17.5l-70 -70l-58 57l68 68q-30 44 -30 101t30 101l-68 68l58 57l70 -71q44 25 97 25q52 0 96 -25l71 71l58 -57l-68 -68q30 -44 30 -101t-30 -101l68 -68l-58 -57l-71 70q-21 -11 -45.5 -17.5t-50.5 -6.5zM245 166q39 0 61.5 26.5
t22.5 68.5t-22.5 68.5t-61.5 26.5t-61.5 -26.5t-22.5 -68.5t22.5 -68.5t61.5 -26.5z" />
    <glyph glyph-name="yen" unicode="&#xa5;" horiz-adv-x="540" 
d="M186 247h-132v74h88l-122 209h115l139 -249l140 249h106l-123 -209h89v-74h-132l-30 -50h162v-74h-164v-123h-104v123h-164v74h161z" />
    <glyph glyph-name="brokenbar" unicode="&#xa6;" horiz-adv-x="244" 
d="M70 356v354h104v-354h-104zM174 236v-364h-104v364h104z" />
    <glyph glyph-name="section" unicode="&#xa7;" horiz-adv-x="508" 
d="M104 300q-13 19 -20 40.5t-7 44.5q0 35 12.5 63.5t35.5 48.5t55 30.5t71 10.5q66 0 107 -25.5t69 -67.5l-81 -53q-14 23 -36 40t-60 17q-36 0 -54.5 -16t-18.5 -43q0 -25 13.5 -39.5t51.5 -28.5l117 -43q67 -25 98.5 -65t31.5 -94q0 -38 -24 -67.5t-59 -49.5
q25 -34 25 -79q0 -63 -46.5 -102.5t-135.5 -39.5q-66 0 -117.5 28t-75.5 71l75 56q17 -26 45 -45.5t73 -19.5q39 0 58 13.5t19 36.5q0 18 -13 33t-56 30l-106 37q-66 23 -98 60t-32 96q0 39 21.5 70t61.5 52zM348 52q20 11 31.5 25.5t11.5 35.5q0 27 -14.5 42.5t-47.5 27.5
l-117 41q-33 12 -60 30q-34 -23 -34 -63q0 -29 13.5 -45t45.5 -27l108 -38q17 -6 33 -13t30 -16z" />
    <glyph glyph-name="dieresis" unicode="&#xa8;" 
d="M331 410q-22 0 -39.5 16.5t-17.5 40.5t17.5 40.5t39.5 16.5q23 0 40 -16.5t17 -40.5t-17 -40.5t-40 -16.5zM169 410q-22 0 -39.5 16.5t-17.5 40.5t17.5 40.5t39.5 16.5q23 0 40 -16.5t17 -40.5t-17 -40.5t-40 -16.5z" />
    <glyph glyph-name="copyright" unicode="&#xa9;" horiz-adv-x="613" 
d="M307 -6q-55 0 -104.5 20.5t-87 56.5t-59.5 86t-22 109t22 109t59.5 86t87 56.5t104.5 20.5t104 -20.5t86.5 -56.5t59.5 -86t22 -109t-22 -109t-59.5 -86t-86.5 -56.5t-104 -20.5zM307 44q45 0 85 17t70 46.5t47 70t17 88.5t-17 88.5t-47 70t-70 46.5t-85 17
q-46 0 -86 -17t-70 -46.5t-47 -70t-17 -88.5t17 -88.5t47 -70t70 -46.5t86 -17zM311 102q-36 0 -66 12.5t-52.5 34t-35 51.5t-12.5 66t12.5 66t34.5 51.5t52 34t65 12.5q48 0 78.5 -15t51.5 -40l-64 -59q-11 12 -27 20.5t-37 8.5q-32 0 -49 -23t-17 -56t17 -56t50 -23
q26 0 41.5 10.5t26.5 20.5l64 -58q-23 -26 -53.5 -42t-79.5 -16z" />
    <glyph glyph-name="ordfeminine" unicode="&#xaa;" horiz-adv-x="349" 
d="M224 407q-1 30 -14.5 42t-39.5 12q-31 0 -48.5 -11t-28.5 -23l-55 51q10 12 22 22.5t29 19t39.5 13.5t52.5 5q27 0 52 -8t43.5 -24.5t29.5 -42t11 -61.5v-180h-93v28q-32 -36 -87 -36q-23 0 -44 6t-36.5 18.5t-24.5 32t-9 46.5q0 45 35 67.5t86 22.5h80zM148 345
q-15 0 -24 -8.5t-9 -20.5t9 -20t29 -8q31 0 51 13t20 32v12h-76z" />
    <glyph glyph-name="guillemotleft" unicode="&#xab;" horiz-adv-x="403" 
d="M193 170v4l77 136h105l-77 -138l77 -140h-105zM28 170v4l77 136h105l-77 -138l77 -140h-105z" />
    <glyph glyph-name="logicalnot" unicode="&#xac;" horiz-adv-x="351" 
d="M36 304h279v-185h-85v95h-194v90z" />
    <glyph glyph-name="uni00AD" unicode="&#xad;" horiz-adv-x="250" 
d="M33 256h184v-91h-184v91z" />
    <glyph glyph-name="registered" unicode="&#xae;" horiz-adv-x="390" 
d="M194 356q-35 0 -65.5 12.5t-53.5 34.5t-36 52.5t-13 66.5t13 67t36 53t53.5 34.5t65.5 12.5t66 -12.5t54 -34.5t36.5 -53t13.5 -67t-13.5 -66.5t-36.5 -52.5t-54 -34.5t-66 -12.5zM194 390q29 0 53.5 10t42.5 27.5t28 41.5t10 53q0 30 -10 54.5t-28 42.5t-42.5 27.5
t-53.5 9.5q-57 0 -94 -37t-37 -97q0 -29 10 -53t27 -41.5t41 -27.5t53 -10zM276 430h-55l-27 45h-18v-45h-52v188h71q40 0 61.5 -21.5t21.5 -49.5q0 -41 -36 -61zM194 517q14 0 23 6t9 22q0 15 -9 21.5t-23 6.5h-18v-56h18z" />
    <glyph glyph-name="macron" unicode="&#xaf;" 
d="M144 497h212v-76h-212v76z" />
    <glyph glyph-name="degree" unicode="&#xb0;" horiz-adv-x="298" 
d="M151 312q-24 0 -45.5 9t-37.5 24.5t-25.5 36t-9.5 43.5q0 24 9.5 44.5t25.5 36t37.5 24t45.5 8.5t45.5 -8.5t37.5 -24t25.5 -36t9.5 -44.5q0 -23 -9.5 -43.5t-25.5 -36t-37.5 -24.5t-45.5 -9zM151 376q20 0 33.5 14t13.5 35t-13.5 35t-33.5 14t-33.5 -14t-13.5 -35
t13.5 -35t33.5 -14z" />
    <glyph glyph-name="plusminus" unicode="&#xb1;" horiz-adv-x="361" 
d="M227 170h-93v94h-88v90h88v94h93v-94h88v-90h-88v-94zM41 124h279v-85h-279v85z" />
    <glyph glyph-name="twosuperior" unicode="&#xb2;" horiz-adv-x="311" 
d="M15 354l147 150q23 23 30.5 39.5t7.5 30.5q0 16 -11.5 25.5t-28.5 9.5q-39 0 -59 -48l-81 30q18 45 52.5 72t87.5 27q61 0 95.5 -31.5t34.5 -82.5q0 -27 -14 -53.5t-41 -54.5l-42 -45h95v-78h-273v9z" />
    <glyph glyph-name="threesuperior" unicode="&#xb3;" horiz-adv-x="324" 
d="M155 333q-54 0 -88.5 21.5t-50.5 62.5l80 35q7 -17 19.5 -27.5t37.5 -10.5q51 0 51 45q-1 47 -52 48q-18 0 -28.5 -2t-18.5 -6l-5 8l67 97h-116v76h246v-7l-81 -114q34 -9 57.5 -34.5t23.5 -71.5q0 -30 -12 -52.5t-31.5 -37.5t-45 -22.5t-53.5 -7.5z" />
    <glyph glyph-name="acute" unicode="&#xb4;" 
d="M259 548h113l-85 -152h-78z" />
    <glyph glyph-name="mu" unicode="&#xb5;" horiz-adv-x="416" 
d="M140 142q0 -29 15 -45t46 -16q36 0 55.5 19.5t19.5 57.5v184h100v-342h-100v44q-13 -22 -32.5 -35.5t-45.5 -13.5q-40 0 -64 26l3.5 -21t2 -18t0.5 -19.5v-26.5v-148h-100v554h100v-200z" />
    <glyph glyph-name="paragraph" unicode="&#xb6;" horiz-adv-x="581" 
d="M235 288q-47 0 -85 16t-65.5 43t-42.5 62.5t-15 74.5t15 74.5t42.5 62.5t65.5 43t85 16h307v-680h-102v587h-59v-587h-102v288h-44zM279 587h-41q-44 0 -72.5 -25.5t-28.5 -77.5t28.5 -77.5t72.5 -25.5h41v206z" />
    <glyph glyph-name="periodcentered" unicode="&#xb7;" horiz-adv-x="212" 
d="M106 184q-28 0 -49 19.5t-21 50.5t21 50.5t49 19.5t49 -19.5t21 -50.5t-21 -50.5t-49 -19.5z" />
    <glyph glyph-name="cedilla" unicode="&#xb8;" 
d="M251 -200q-36 0 -59 14t-34 34l51 31q5 -9 12 -15t21 -6q11 0 19.5 6t8.5 20q0 13 -8 20t-23 7h-28v89h57v-43q29 -5 48.5 -24.5t19.5 -55.5q0 -18 -7 -32.5t-19 -24t-27.5 -15t-31.5 -5.5z" />
    <glyph glyph-name="onesuperior" unicode="&#xb9;" horiz-adv-x="223" 
d="M73 597h-55v83h151v-329h-96v246z" />
    <glyph glyph-name="ordmasculine" unicode="&#xba;" horiz-adv-x="393" 
d="M198 214q-36 0 -67 12t-54 33.5t-36 51.5t-13 65t13 64.5t36 51.5t54 34t67 12q35 0 66 -12t54 -34t36.5 -51.5t13.5 -64.5t-13.5 -65t-36.5 -51.5t-54 -33.5t-66 -12zM198 292q34 0 54 23t20 61q0 37 -20 60t-54 23q-35 0 -54.5 -23t-19.5 -60q0 -38 19.5 -61t54.5 -23z
" />
    <glyph glyph-name="guillemotright" unicode="&#xbb;" horiz-adv-x="403" 
d="M270 170l-77 140h105l77 -138v-4l-77 -136h-105zM105 170l-77 140h105l77 -138v-4l-77 -136h-105z" />
    <glyph glyph-name="onequarter" unicode="&#xbc;" horiz-adv-x="357" 
d="M136 614h-56v66h135v-278h-79v212zM304 105v-49h-39v-56h-68v56h-156v10l212 225h12v-186h39zM199 161l-53 -57h53v57zM33 370h291v-59h-291v59z" />
    <glyph glyph-name="onehalf" unicode="&#xbd;" horiz-adv-x="357" 
d="M136 614h-56v66h135v-278h-79v212zM55 10l99 106q25 27 37 43.5t12 31.5q0 12 -8.5 19t-21.5 7q-17 0 -27 -11t-14 -25l-70 26q13 35 42 57t74 22q53 0 81 -25t28 -62q0 -29 -18.5 -53.5t-48.5 -56.5l-24 -25h97v-64h-238v10zM33 370h291v-59h-291v59z" />
    <glyph glyph-name="threequarters" unicode="&#xbe;" horiz-adv-x="357" 
d="M117 489q8 -17 22 -27.5t35 -10.5q20 0 32.5 11t12.5 32q0 23 -15.5 32t-35.5 9q-24 0 -43 -8l-5 9l67 84h-106v60h215v-7l-80 -95q30 -5 53.5 -25.5t23.5 -58.5q0 -44 -28 -73.5t-87 -29.5q-48 0 -76.5 19.5t-42.5 46.5zM304 105v-49h-39v-56h-68v56h-156v10l212 225h12
v-186h39zM199 161l-53 -57h53v57zM33 370h291v-59h-291v59z" />
    <glyph glyph-name="questiondown" unicode="&#xbf;" horiz-adv-x="453" 
d="M249 546q-28 0 -49 19.5t-21 50.5t21 50.5t49 19.5t49 -19.5t21 -50.5t-21 -50.5t-49 -19.5zM239 -9q-49 0 -87.5 15.5t-65.5 41.5t-41 61.5t-14 74.5q0 78 42 128t126 65v96h98v-180h-36q-33 0 -56.5 -9t-38 -24.5t-21 -35t-6.5 -40.5q0 -40 26 -70.5t73 -30.5
q44 0 70.5 21.5t46.5 55.5l82 -48q-12 -24 -31 -46t-43.5 -38.5t-55.5 -26.5t-68 -10z" />
    <glyph glyph-name="Agrave" unicode="&#xc0;" horiz-adv-x="645" 
d="M129 0h-108l298 694h6l299 -694h-113l-39 95h-304zM321 459l-113 -269h224zM201 877h113l50 -152h-78z" />
    <glyph glyph-name="Aacute" unicode="&#xc1;" horiz-adv-x="645" 
d="M129 0h-108l298 694h6l299 -694h-113l-39 95h-304zM321 459l-113 -269h224zM333 878h113l-85 -152h-78z" />
    <glyph glyph-name="Acircumflex" unicode="&#xc2;" horiz-adv-x="645" 
d="M129 0h-108l298 694h6l299 -694h-113l-39 95h-304zM321 459l-113 -269h224zM320 881h5l129 -152h-79l-52 43l-53 -43h-79z" />
    <glyph glyph-name="Atilde" unicode="&#xc3;" horiz-adv-x="645" 
d="M382 739q-18 0 -34 4t-30 9t-26 9t-22 4q-12 0 -18 -6t-11 -23l-68 9q7 47 30.5 74.5t58.5 27.5q18 0 34 -4t30 -9t26 -9t22 -4q12 0 18 6t11 23l68 -9q-7 -47 -30.5 -74.5t-58.5 -27.5zM129 0h-108l298 694h6l299 -694h-113l-39 95h-304zM321 459l-113 -269h224z" />
    <glyph glyph-name="Adieresis" unicode="&#xc4;" horiz-adv-x="645" 
d="M129 0h-108l298 694h6l299 -694h-113l-39 95h-304zM321 459l-113 -269h224zM403 726q-22 0 -39.5 16.5t-17.5 40.5t17.5 40.5t39.5 16.5q23 0 40 -16.5t17 -40.5t-17 -40.5t-40 -16.5zM241 726q-22 0 -39.5 16.5t-17.5 40.5t17.5 40.5t39.5 16.5q23 0 40 -16.5t17 -40.5
t-17 -40.5t-40 -16.5z" />
    <glyph glyph-name="Aring" unicode="&#xc5;" horiz-adv-x="645" 
d="M129 0h-108l279 649q-31 8 -52 32t-21 55q0 18 7.5 34.5t20.5 29t30.5 19.5t36.5 7t36.5 -7t30.5 -19.5t20.5 -29t7.5 -34.5q0 -31 -21 -55t-52 -32l280 -649h-113l-39 95h-304zM322 701q14 0 23.5 9t9.5 26t-9.5 26.5t-23.5 9.5t-23.5 -9.5t-9.5 -26.5t9.5 -26t23.5 -9z
M321 459l-113 -269h224z" />
    <glyph glyph-name="AE" unicode="&#xc6;" horiz-adv-x="959" 
d="M473 680h421v-95h-326v-283h289v-93h-289v-114h340v-95h-447v95h-273l-63 -95h-109zM461 190v315l-210 -315h210z" />
    <glyph glyph-name="Ccedilla" unicode="&#xc7;" horiz-adv-x="710" 
d="M341 -6q-65 7 -119.5 36t-95 74.5t-63 105.5t-22.5 130q0 75 27 139t74 110.5t110 73t136 26.5q95 0 161 -34.5t111 -97.5l-82 -58q-34 46 -79.5 69.5t-113.5 23.5q-51 0 -93.5 -19t-73.5 -53t-48.5 -80t-17.5 -100q0 -55 18 -101.5t49.5 -80t75 -52t94.5 -18.5
q66 0 116 24.5t88 74.5l83 -57q-51 -68 -117.5 -102.5t-160.5 -36.5v-34q29 -5 48.5 -24.5t19.5 -55.5q0 -18 -7 -32.5t-19 -24t-27.5 -15t-31.5 -5.5q-36 0 -59 14t-34 34l51 31q5 -9 12 -15t21 -6q11 0 19.5 6t8.5 20q0 27 -31 27h-28v83v0z" />
    <glyph glyph-name="Egrave" unicode="&#xc8;" horiz-adv-x="572" 
d="M74 680h433v-95h-326v-282h289v-93h-289v-115h340v-95h-447v680zM182 877h113l50 -152h-78z" />
    <glyph glyph-name="Eacute" unicode="&#xc9;" horiz-adv-x="572" 
d="M74 680h433v-95h-326v-282h289v-93h-289v-115h340v-95h-447v680zM314 878h113l-85 -152h-78z" />
    <glyph glyph-name="Ecircumflex" unicode="&#xca;" horiz-adv-x="572" 
d="M74 680h433v-95h-326v-282h289v-93h-289v-115h340v-95h-447v680zM301 881h5l129 -152h-79l-52 43l-53 -43h-79z" />
    <glyph glyph-name="Edieresis" unicode="&#xcb;" horiz-adv-x="572" 
d="M74 680h433v-95h-326v-282h289v-93h-289v-115h340v-95h-447v680zM384 726q-22 0 -39.5 16.5t-17.5 40.5t17.5 40.5t39.5 16.5q23 0 40 -16.5t17 -40.5t-17 -40.5t-40 -16.5zM222 726q-22 0 -39.5 16.5t-17.5 40.5t17.5 40.5t39.5 16.5q23 0 40 -16.5t17 -40.5t-17 -40.5
t-40 -16.5z" />
    <glyph glyph-name="Igrave" unicode="&#xcc;" horiz-adv-x="261" 
d="M77 680h107v-680h-107v680zM10 877h113l50 -152h-78z" />
    <glyph glyph-name="Iacute" unicode="&#xcd;" horiz-adv-x="261" 
d="M77 680h107v-680h-107v680zM142 877h113l-85 -152h-78z" />
    <glyph glyph-name="Icircumflex" unicode="&#xce;" horiz-adv-x="261" 
d="M77 680h107v-680h-107v680zM129 881h5l129 -152h-79l-52 43l-53 -43h-79z" />
    <glyph glyph-name="Idieresis" unicode="&#xcf;" horiz-adv-x="261" 
d="M77 680h107v-680h-107v680zM212 726q-22 0 -39.5 16.5t-17.5 40.5t17.5 40.5t39.5 16.5q23 0 40 -16.5t17 -40.5t-17 -40.5t-40 -16.5zM50 726q-22 0 -39.5 16.5t-17.5 40.5t17.5 40.5t39.5 16.5q23 0 40 -16.5t17 -40.5t-17 -40.5t-40 -16.5z" />
    <glyph glyph-name="Eth" unicode="&#xd0;" horiz-adv-x="665" 
d="M11 210v93h63v377h192q83 0 149.5 -25t113 -70t71 -107.5t24.5 -137.5t-24.5 -137.5t-71 -107.5t-112.5 -70t-150 -25h-192v210h-63zM345 303v-93h-164v-115h79q66 0 114 18t78.5 50.5t45.5 77.5t15 99t-15 99t-45.5 77.5t-78.5 50.5t-114 18h-79v-282h164z" />
    <glyph glyph-name="Ntilde" unicode="&#xd1;" horiz-adv-x="691" 
d="M410 739q-18 0 -34 4t-30 9t-26 9t-22 4q-12 0 -18 -6t-11 -23l-68 9q7 47 30.5 74.5t58.5 27.5q18 0 34 -4t30 -9t26 -9t22 -4q12 0 18 6t11 23l68 -9q-7 -47 -30.5 -74.5t-58.5 -27.5zM174 447v-447h-100v690h8l436 -457v447h100v-690h-8z" />
    <glyph glyph-name="Ograve" unicode="&#xd2;" horiz-adv-x="784" 
d="M392 -9q-73 0 -137 26.5t-111.5 73t-75 110.5t-27.5 139t27.5 139t75 110.5t111.5 73t137 26.5t137 -26.5t111.5 -73t75 -110.5t27.5 -139t-27.5 -139t-75 -110.5t-111.5 -73t-137 -26.5zM392 88q53 0 97 19t76 53t49.5 80t17.5 100t-17.5 100t-49.5 80t-76 53t-97 19
t-97 -19t-76 -53t-49.5 -80t-17.5 -100t17.5 -100t49.5 -80t76 -53t97 -19zM271 877h113l50 -152h-78z" />
    <glyph glyph-name="Oacute" unicode="&#xd3;" horiz-adv-x="784" 
d="M392 -9q-73 0 -137 26.5t-111.5 73t-75 110.5t-27.5 139t27.5 139t75 110.5t111.5 73t137 26.5t137 -26.5t111.5 -73t75 -110.5t27.5 -139t-27.5 -139t-75 -110.5t-111.5 -73t-137 -26.5zM392 88q53 0 97 19t76 53t49.5 80t17.5 100t-17.5 100t-49.5 80t-76 53t-97 19
t-97 -19t-76 -53t-49.5 -80t-17.5 -100t17.5 -100t49.5 -80t76 -53t97 -19zM403 877h113l-85 -152h-78z" />
    <glyph glyph-name="Ocircumflex" unicode="&#xd4;" horiz-adv-x="784" 
d="M392 -9q-73 0 -137 26.5t-111.5 73t-75 110.5t-27.5 139t27.5 139t75 110.5t111.5 73t137 26.5t137 -26.5t111.5 -73t75 -110.5t27.5 -139t-27.5 -139t-75 -110.5t-111.5 -73t-137 -26.5zM392 88q53 0 97 19t76 53t49.5 80t17.5 100t-17.5 100t-49.5 80t-76 53t-97 19
t-97 -19t-76 -53t-49.5 -80t-17.5 -100t17.5 -100t49.5 -80t76 -53t97 -19zM390 881h5l129 -152h-79l-52 43l-53 -43h-79z" />
    <glyph glyph-name="Otilde" unicode="&#xd5;" horiz-adv-x="784" 
d="M448 739q-18 0 -34 4t-30 9t-26 9t-22 4q-12 0 -18 -6t-11 -23l-68 9q7 47 30.5 74.5t58.5 27.5q18 0 34 -4t30 -9t26 -9t22 -4q12 0 18 6t11 23l68 -9q-7 -47 -30.5 -74.5t-58.5 -27.5zM392 -9q-73 0 -137 26.5t-111.5 73t-75 110.5t-27.5 139t27.5 139t75 110.5
t111.5 73t137 26.5t137 -26.5t111.5 -73t75 -110.5t27.5 -139t-27.5 -139t-75 -110.5t-111.5 -73t-137 -26.5zM392 88q53 0 97 19t76 53t49.5 80t17.5 100t-17.5 100t-49.5 80t-76 53t-97 19t-97 -19t-76 -53t-49.5 -80t-17.5 -100t17.5 -100t49.5 -80t76 -53t97 -19z" />
    <glyph glyph-name="Odieresis" unicode="&#xd6;" horiz-adv-x="784" 
d="M392 -9q-73 0 -137 26.5t-111.5 73t-75 110.5t-27.5 139t27.5 139t75 110.5t111.5 73t137 26.5t137 -26.5t111.5 -73t75 -110.5t27.5 -139t-27.5 -139t-75 -110.5t-111.5 -73t-137 -26.5zM392 88q53 0 97 19t76 53t49.5 80t17.5 100t-17.5 100t-49.5 80t-76 53t-97 19
t-97 -19t-76 -53t-49.5 -80t-17.5 -100t17.5 -100t49.5 -80t76 -53t97 -19zM473 726q-22 0 -39.5 16.5t-17.5 40.5t17.5 40.5t39.5 16.5q23 0 40 -16.5t17 -40.5t-17 -40.5t-40 -16.5zM311 726q-22 0 -39.5 16.5t-17.5 40.5t17.5 40.5t39.5 16.5q23 0 40 -16.5t17 -40.5
t-17 -40.5t-40 -16.5z" />
    <glyph glyph-name="multiply" unicode="&#xd7;" horiz-adv-x="361" 
d="M36 178l81 81l-81 81l63 64l81 -82l82 82l63 -64l-81 -81l81 -81l-63 -64l-82 81l-81 -81z" />
    <glyph glyph-name="Oslash" unicode="&#xd8;" horiz-adv-x="784" 
d="M672 554q34 -44 52.5 -98t18.5 -116q0 -75 -27.5 -139t-75 -110.5t-111.5 -73t-137 -26.5q-63 0 -119.5 19.5t-101.5 55.5l-77 -76l-60 59l78 76q-33 44 -52 98t-19 117q0 75 27.5 139t75 110.5t111.5 73t137 26.5q63 0 119.5 -20t101.5 -55l77 75l60 -59zM542 544
q-30 23 -67.5 36t-82.5 13q-53 0 -97 -19.5t-76 -53t-50 -80t-18 -100.5q0 -41 9.5 -76.5t26.5 -64.5zM243 136q30 -23 67.5 -36t81.5 -13q53 0 97 19.5t76 53t50 80t18 100.5q0 40 -9.5 75.5t-26.5 65.5z" />
    <glyph glyph-name="Ugrave" unicode="&#xd9;" horiz-adv-x="659" 
d="M330 -9q-56 0 -103.5 15.5t-82 46.5t-54.5 78t-20 109v440h107v-434q0 -82 39 -120t114 -38q74 0 113 38t39 120v434h107v-440q0 -62 -20 -109t-54.5 -78t-82 -46.5t-102.5 -15.5zM208 877h113l50 -152h-78z" />
    <glyph glyph-name="Uacute" unicode="&#xda;" horiz-adv-x="659" 
d="M330 -9q-56 0 -103.5 15.5t-82 46.5t-54.5 78t-20 109v440h107v-434q0 -82 39 -120t114 -38q74 0 113 38t39 120v434h107v-440q0 -62 -20 -109t-54.5 -78t-82 -46.5t-102.5 -15.5zM340 877h113l-85 -152h-78z" />
    <glyph glyph-name="Ucircumflex" unicode="&#xdb;" horiz-adv-x="659" 
d="M330 -9q-56 0 -103.5 15.5t-82 46.5t-54.5 78t-20 109v440h107v-434q0 -82 39 -120t114 -38q74 0 113 38t39 120v434h107v-440q0 -62 -20 -109t-54.5 -78t-82 -46.5t-102.5 -15.5zM327 881h5l129 -152h-79l-52 43l-53 -43h-79z" />
    <glyph glyph-name="Udieresis" unicode="&#xdc;" horiz-adv-x="659" 
d="M330 -9q-56 0 -103.5 15.5t-82 46.5t-54.5 78t-20 109v440h107v-434q0 -82 39 -120t114 -38q74 0 113 38t39 120v434h107v-440q0 -62 -20 -109t-54.5 -78t-82 -46.5t-102.5 -15.5zM410 726q-22 0 -39.5 16.5t-17.5 40.5t17.5 40.5t39.5 16.5q23 0 40 -16.5t17 -40.5
t-17 -40.5t-40 -16.5zM248 726q-22 0 -39.5 16.5t-17.5 40.5t17.5 40.5t39.5 16.5q23 0 40 -16.5t17 -40.5t-17 -40.5t-40 -16.5z" />
    <glyph glyph-name="Yacute" unicode="&#xdd;" horiz-adv-x="654" 
d="M21 680h118l193 -355l190 355h112l-250 -463v-217h-107v216zM336 878h113l-85 -152h-78z" />
    <glyph glyph-name="Thorn" unicode="&#xde;" horiz-adv-x="577" 
d="M248 604q70 0 124 -18.5t91 -52.5t56 -82t19 -107t-19 -106.5t-56 -81.5t-91 -52.5t-124 -18.5h-67v-85h-107v680h107v-76h67zM244 180q98 0 141 43.5t43 120.5q0 78 -43 121.5t-141 43.5h-63v-329h63z" />
    <glyph glyph-name="germandbls" unicode="&#xdf;" horiz-adv-x="461" 
d="M310 -9q-46 0 -81 13.5t-56 36.5l57 64q14 -14 31.5 -23.5t42.5 -9.5q42 0 42 25q-1 18 -16.5 22.5t-52.5 13.5q-17 4 -33 11.5t-29 20t-20.5 31t-7.5 45.5q0 40 19.5 63t43.5 33v233q0 26 -12.5 44.5t-42.5 18.5q-32 0 -43.5 -17.5t-11.5 -44.5v-571h-100v568
q0 37 13 65.5t34.5 47t49.5 28t58 9.5q31 0 59 -9t49 -27.5t33.5 -47t12.5 -66.5v-292q-42 -2 -57 -9.5t-15 -21.5t12.5 -19.5t47.5 -13.5q18 -4 36.5 -11t33.5 -19.5t24.5 -31.5t9.5 -47q0 -23 -6 -43t-21 -35.5t-40.5 -24.5t-63.5 -9z" />
    <glyph glyph-name="agrave" unicode="&#xe0;" horiz-adv-x="380" 
d="M243 205q-1 35 -18.5 48.5t-44.5 13.5t-47 -10t-35 -27l-61 56q57 65 149 65q73 0 115 -37.5t42 -113.5v-200h-100v31q-34 -40 -96 -40q-26 0 -49 6.5t-40.5 20.5t-27.5 35.5t-10 51.5q0 25 10.5 44t28.5 31.5t42.5 18.5t52.5 6h89zM159 137q-20 0 -30 -9t-10 -24
q0 -14 10.5 -23.5t35.5 -9.5q34 0 56 15.5t22 36.5v14h-84zM71 548h113l50 -152h-78z" />
    <glyph glyph-name="aacute" unicode="&#xe1;" horiz-adv-x="380" 
d="M243 205q-1 35 -18.5 48.5t-44.5 13.5t-47 -10t-35 -27l-61 56q57 65 149 65q73 0 115 -37.5t42 -113.5v-200h-100v31q-34 -40 -96 -40q-26 0 -49 6.5t-40.5 20.5t-27.5 35.5t-10 51.5q0 25 10.5 44t28.5 31.5t42.5 18.5t52.5 6h89zM159 137q-20 0 -30 -9t-10 -24
q0 -14 10.5 -23.5t35.5 -9.5q34 0 56 15.5t22 36.5v14h-84zM203 548h113l-85 -152h-78z" />
    <glyph glyph-name="acircumflex" unicode="&#xe2;" horiz-adv-x="380" 
d="M243 205q-1 35 -18.5 48.5t-44.5 13.5t-47 -10t-35 -27l-61 56q57 65 149 65q73 0 115 -37.5t42 -113.5v-200h-100v31q-34 -40 -96 -40q-26 0 -49 6.5t-40.5 20.5t-27.5 35.5t-10 51.5q0 25 10.5 44t28.5 31.5t42.5 18.5t52.5 6h89zM159 137q-20 0 -30 -9t-10 -24
q0 -14 10.5 -23.5t35.5 -9.5q34 0 56 15.5t22 36.5v14h-84zM190 551h5l129 -152h-79l-52 43l-53 -43h-79z" />
    <glyph glyph-name="atilde" unicode="&#xe3;" horiz-adv-x="380" 
d="M243 205q-1 35 -18.5 48.5t-44.5 13.5t-47 -10t-35 -27l-61 56q57 65 149 65q73 0 115 -37.5t42 -113.5v-200h-100v31q-34 -40 -96 -40q-26 0 -49 6.5t-40.5 20.5t-27.5 35.5t-10 51.5q0 25 10.5 44t28.5 31.5t42.5 18.5t52.5 6h89zM159 137q-20 0 -30 -9t-10 -24
q0 -14 10.5 -23.5t35.5 -9.5q34 0 56 15.5t22 36.5v14h-84zM240 408q-17 0 -29.5 4.5t-22.5 9.5t-18.5 9.5t-17.5 4.5t-15 -5t-11 -22l-68 9q7 47 30 73.5t56 26.5q17 0 29.5 -4.5t22.5 -9.5t18.5 -9.5t17.5 -4.5t15 5t11 22l68 -9q-7 -47 -30 -73.5t-56 -26.5z" />
    <glyph glyph-name="adieresis" unicode="&#xe4;" horiz-adv-x="380" 
d="M243 205q-1 35 -18.5 48.5t-44.5 13.5t-47 -10t-35 -27l-61 56q57 65 149 65q73 0 115 -37.5t42 -113.5v-200h-100v31q-34 -40 -96 -40q-26 0 -49 6.5t-40.5 20.5t-27.5 35.5t-10 51.5q0 25 10.5 44t28.5 31.5t42.5 18.5t52.5 6h89zM159 137q-20 0 -30 -9t-10 -24
q0 -14 10.5 -23.5t35.5 -9.5q34 0 56 15.5t22 36.5v14h-84zM273 410q-22 0 -39.5 16.5t-17.5 40.5t17.5 40.5t39.5 16.5q23 0 40 -16.5t17 -40.5t-17 -40.5t-40 -16.5zM111 410q-22 0 -39.5 16.5t-17.5 40.5t17.5 40.5t39.5 16.5q23 0 40 -16.5t17 -40.5t-17 -40.5
t-40 -16.5z" />
    <glyph glyph-name="aring" unicode="&#xe5;" horiz-adv-x="380" 
d="M243 205q-1 35 -18.5 48.5t-44.5 13.5t-47 -10t-35 -27l-61 56q57 65 149 65q73 0 115 -37.5t42 -113.5v-200h-100v31q-34 -40 -96 -40q-26 0 -49 6.5t-40.5 20.5t-27.5 35.5t-10 51.5q0 25 10.5 44t28.5 31.5t42.5 18.5t52.5 6h89zM159 137q-20 0 -30 -9t-10 -24
q0 -14 10.5 -23.5t35.5 -9.5q34 0 56 15.5t22 36.5v14h-84zM192 391q-19 0 -36.5 7t-30.5 19.5t-20.5 28.5t-7.5 34t7.5 34.5t20.5 29t30.5 19.5t36.5 7t36.5 -7t30.5 -19.5t20.5 -29t7.5 -34.5t-7.5 -34t-20.5 -28.5t-30.5 -19.5t-36.5 -7zM192 445q14 0 23.5 9t9.5 26
t-9.5 26.5t-23.5 9.5t-23.5 -9.5t-9.5 -26.5t9.5 -26t23.5 -9z" />
    <glyph glyph-name="ae" unicode="&#xe6;" horiz-adv-x="630" 
d="M298 294q22 27 53.5 42t73.5 15q45 0 80 -16.5t58 -46t34 -68.5t8 -84h-261q8 -28 29.5 -44.5t59.5 -16.5q33 0 54 10.5t35 22.5l60 -60q-23 -25 -58 -41t-89 -16q-51 0 -86 17t-57 48q-25 -37 -64 -51t-81 -14q-26 0 -49 6.5t-40.5 20.5t-27.5 35.5t-10 51.5
q0 25 10.5 43.5t28.5 31t42.5 18.5t52.5 6h91q-1 35 -18.5 49t-46.5 14q-27 0 -47 -10t-35 -27l-61 56q57 65 149 65q78 0 112 -57zM500 204q-5 29 -24 46t-51 17t-52.5 -16.5t-28.5 -46.5h156zM159 136q-40 0 -40 -32q0 -14 10.5 -23.5t35.5 -9.5q34 0 57 14.5t23 37.5v13
h-86z" />
    <glyph glyph-name="ccedilla" unicode="&#xe7;" horiz-adv-x="372" 
d="M162 -4q-30 7 -55 23t-43 38.5t-28 51.5t-10 62q0 39 14 72t38 57t57 37.5t71 13.5q52 0 86 -16.5t57 -43.5l-66 -61q-13 14 -32 24t-42 10q-38 0 -59 -27t-21 -66t21.5 -66t60.5 -27q29 0 47.5 11.5t30.5 24.5l66 -60q-23 -27 -55 -44t-81 -19v-34q29 -5 48.5 -24.5
t19.5 -55.5q0 -18 -7 -32.5t-19 -24t-27.5 -15t-31.5 -5.5q-36 0 -59 14t-34 34l51 31q5 -9 12 -15t21 -6q11 0 19.5 6t8.5 20q0 13 -8 20t-23 7h-28v85v0z" />
    <glyph glyph-name="egrave" unicode="&#xe8;" horiz-adv-x="416" 
d="M130 137q8 -29 29.5 -45.5t59.5 -16.5q33 0 54 10.5t35 22.5l60 -60q-23 -25 -58 -41t-89 -16q-45 0 -81 13.5t-61.5 37.5t-39 57t-13.5 72t14.5 72t39 57t58.5 37.5t73 13.5q45 0 80 -16.5t58 -45.5t34 -68t8 -84h-261zM286 207q-5 26 -24 43t-51 17q-31 0 -51.5 -15.5
t-28.5 -44.5h155zM91 548h113l50 -152h-78z" />
    <glyph glyph-name="eacute" unicode="&#xe9;" horiz-adv-x="416" 
d="M130 137q8 -29 29.5 -45.5t59.5 -16.5q33 0 54 10.5t35 22.5l60 -60q-23 -25 -58 -41t-89 -16q-45 0 -81 13.5t-61.5 37.5t-39 57t-13.5 72t14.5 72t39 57t58.5 37.5t73 13.5q45 0 80 -16.5t58 -45.5t34 -68t8 -84h-261zM286 207q-5 26 -24 43t-51 17q-31 0 -51.5 -15.5
t-28.5 -44.5h155zM223 548h113l-85 -152h-78z" />
    <glyph glyph-name="ecircumflex" unicode="&#xea;" horiz-adv-x="416" 
d="M130 137q8 -29 29.5 -45.5t59.5 -16.5q33 0 54 10.5t35 22.5l60 -60q-23 -25 -58 -41t-89 -16q-45 0 -81 13.5t-61.5 37.5t-39 57t-13.5 72t14.5 72t39 57t58.5 37.5t73 13.5q45 0 80 -16.5t58 -45.5t34 -68t8 -84h-261zM286 207q-5 26 -24 43t-51 17q-31 0 -51.5 -15.5
t-28.5 -44.5h155zM210 551h5l129 -152h-79l-52 43l-53 -43h-79z" />
    <glyph glyph-name="edieresis" unicode="&#xeb;" horiz-adv-x="416" 
d="M130 137q8 -29 29.5 -45.5t59.5 -16.5q33 0 54 10.5t35 22.5l60 -60q-23 -25 -58 -41t-89 -16q-45 0 -81 13.5t-61.5 37.5t-39 57t-13.5 72t14.5 72t39 57t58.5 37.5t73 13.5q45 0 80 -16.5t58 -45.5t34 -68t8 -84h-261zM286 207q-5 26 -24 43t-51 17q-31 0 -51.5 -15.5
t-28.5 -44.5h155zM293 410q-22 0 -39.5 16.5t-17.5 40.5t17.5 40.5t39.5 16.5q23 0 40 -16.5t17 -40.5t-17 -40.5t-40 -16.5zM131 410q-22 0 -39.5 16.5t-17.5 40.5t17.5 40.5t39.5 16.5q23 0 40 -16.5t17 -40.5t-17 -40.5t-40 -16.5z" />
    <glyph glyph-name="igrave" unicode="&#xec;" horiz-adv-x="184" 
d="M42 342h100v-342h-100v342zM-28 548h113l50 -152h-78z" />
    <glyph glyph-name="iacute" unicode="&#xed;" horiz-adv-x="184" 
d="M42 342h100v-342h-100v342zM104 548h113l-85 -152h-78z" />
    <glyph glyph-name="icircumflex" unicode="&#xee;" horiz-adv-x="184" 
d="M42 342h100v-342h-100v342zM91 551h5l129 -152h-79l-52 43l-53 -43h-79z" />
    <glyph glyph-name="idieresis" unicode="&#xef;" horiz-adv-x="184" 
d="M42 342h100v-342h-100v342zM174 410q-22 0 -39.5 16.5t-17.5 40.5t17.5 40.5t39.5 16.5q23 0 40 -16.5t17 -40.5t-17 -40.5t-40 -16.5zM12 410q-22 0 -39.5 16.5t-17.5 40.5t17.5 40.5t39.5 16.5q23 0 40 -16.5t17 -40.5t-17 -40.5t-40 -16.5z" />
    <glyph glyph-name="eth" unicode="&#xf0;" horiz-adv-x="426" 
d="M148 475l-46 49l52 43q-17 17 -36 34.5t-40 34.5l47 65q26 -17 50 -35.5t47 -41.5l50 42l46 -49l-51 -42q60 -73 96.5 -164.5t36.5 -194.5q0 -58 -14.5 -100.5t-39.5 -70t-59.5 -41t-73.5 -13.5t-73.5 13.5t-59.5 37.5t-39.5 57t-14.5 72q0 40 13.5 73t36.5 57t53 37
t63 13q37 0 59.5 -10.5t39.5 -33.5q-12 61 -35 112t-58 98zM213 76q39 0 61.5 26.5t22.5 68.5t-22.5 68.5t-61.5 26.5t-61.5 -26.5t-22.5 -68.5t22.5 -68.5t61.5 -26.5z" />
    <glyph glyph-name="ntilde" unicode="&#xf1;" horiz-adv-x="410" 
d="M40 342h100v-44q17 28 44 40.5t63 12.5q57 0 93 -37.5t36 -106.5v-207h-100v200q0 29 -15 45t-46 16q-36 0 -55.5 -19.5t-19.5 -57.5v-184h-100v342zM257 408q-17 0 -29.5 4.5t-22.5 9.5t-18.5 9.5t-17.5 4.5t-15 -5t-11 -22l-68 9q7 47 30 73.5t56 26.5q17 0 29.5 -4.5
t22.5 -9.5t18.5 -9.5t17.5 -4.5t15 5t11 22l68 -9q-7 -47 -30 -73.5t-56 -26.5z" />
    <glyph glyph-name="ograve" unicode="&#xf2;" horiz-adv-x="426" 
d="M213 -9q-39 0 -73.5 13.5t-59.5 37.5t-39.5 57t-14.5 72t14.5 72t39.5 57t59.5 37.5t73.5 13.5t73.5 -13.5t59.5 -37.5t39.5 -57t14.5 -72t-14.5 -72t-39.5 -57t-59.5 -37.5t-73.5 -13.5zM213 76q39 0 61.5 26.5t22.5 68.5t-22.5 68.5t-61.5 26.5t-61.5 -26.5
t-22.5 -68.5t22.5 -68.5t61.5 -26.5zM93 548h113l50 -152h-78z" />
    <glyph glyph-name="oacute" unicode="&#xf3;" horiz-adv-x="426" 
d="M213 -9q-39 0 -73.5 13.5t-59.5 37.5t-39.5 57t-14.5 72t14.5 72t39.5 57t59.5 37.5t73.5 13.5t73.5 -13.5t59.5 -37.5t39.5 -57t14.5 -72t-14.5 -72t-39.5 -57t-59.5 -37.5t-73.5 -13.5zM213 76q39 0 61.5 26.5t22.5 68.5t-22.5 68.5t-61.5 26.5t-61.5 -26.5
t-22.5 -68.5t22.5 -68.5t61.5 -26.5zM225 548h113l-85 -152h-78z" />
    <glyph glyph-name="ocircumflex" unicode="&#xf4;" horiz-adv-x="426" 
d="M213 -9q-39 0 -73.5 13.5t-59.5 37.5t-39.5 57t-14.5 72t14.5 72t39.5 57t59.5 37.5t73.5 13.5t73.5 -13.5t59.5 -37.5t39.5 -57t14.5 -72t-14.5 -72t-39.5 -57t-59.5 -37.5t-73.5 -13.5zM213 76q39 0 61.5 26.5t22.5 68.5t-22.5 68.5t-61.5 26.5t-61.5 -26.5
t-22.5 -68.5t22.5 -68.5t61.5 -26.5zM212 551h5l129 -152h-79l-52 43l-53 -43h-79z" />
    <glyph glyph-name="otilde" unicode="&#xf5;" horiz-adv-x="426" 
d="M213 -9q-39 0 -73.5 13.5t-59.5 37.5t-39.5 57t-14.5 72t14.5 72t39.5 57t59.5 37.5t73.5 13.5t73.5 -13.5t59.5 -37.5t39.5 -57t14.5 -72t-14.5 -72t-39.5 -57t-59.5 -37.5t-73.5 -13.5zM213 76q39 0 61.5 26.5t22.5 68.5t-22.5 68.5t-61.5 26.5t-61.5 -26.5
t-22.5 -68.5t22.5 -68.5t61.5 -26.5zM262 408q-17 0 -29.5 4.5t-22.5 9.5t-18.5 9.5t-17.5 4.5t-15 -5t-11 -22l-68 9q7 47 30 73.5t56 26.5q17 0 29.5 -4.5t22.5 -9.5t18.5 -9.5t17.5 -4.5t15 5t11 22l68 -9q-7 -47 -30 -73.5t-56 -26.5z" />
    <glyph glyph-name="odieresis" unicode="&#xf6;" horiz-adv-x="426" 
d="M213 -9q-39 0 -73.5 13.5t-59.5 37.5t-39.5 57t-14.5 72t14.5 72t39.5 57t59.5 37.5t73.5 13.5t73.5 -13.5t59.5 -37.5t39.5 -57t14.5 -72t-14.5 -72t-39.5 -57t-59.5 -37.5t-73.5 -13.5zM213 76q39 0 61.5 26.5t22.5 68.5t-22.5 68.5t-61.5 26.5t-61.5 -26.5
t-22.5 -68.5t22.5 -68.5t61.5 -26.5zM295 410q-22 0 -39.5 16.5t-17.5 40.5t17.5 40.5t39.5 16.5q23 0 40 -16.5t17 -40.5t-17 -40.5t-40 -16.5zM133 410q-22 0 -39.5 16.5t-17.5 40.5t17.5 40.5t39.5 16.5q23 0 40 -16.5t17 -40.5t-17 -40.5t-40 -16.5z" />
    <glyph glyph-name="divide" unicode="&#xf7;" horiz-adv-x="361" 
d="M36 214v90h289v-90h-289zM181 334q-25 0 -44 17.5t-19 45.5t19 45.5t44 17.5t44 -17.5t19 -45.5t-19 -45.5t-44 -17.5zM181 58q-25 0 -44 17.5t-19 45.5t19 45.5t44 17.5t44 -17.5t19 -45.5t-19 -45.5t-44 -17.5z" />
    <glyph glyph-name="oslash" unicode="&#xf8;" horiz-adv-x="426" 
d="M52 76q-12 20 -19 44t-7 51q0 39 14.5 72t39.5 57t59.5 37.5t73.5 13.5q34 0 63.5 -10t53.5 -28l48 42l42 -48l-47 -40q27 -44 27 -96q0 -39 -14.5 -72t-39.5 -57t-59.5 -37.5t-73.5 -13.5q-34 0 -63.5 10t-53.5 28l-48 -41l-42 48zM265 258q-19 13 -52 13
q-44 0 -67.5 -28.5t-23.5 -71.5q0 -18 3 -33zM160 84q23 -13 53 -13q44 0 67.5 28.5t23.5 71.5q0 17 -3 34z" />
    <glyph glyph-name="ugrave" unicode="&#xf9;" horiz-adv-x="413" 
d="M166 -9q-57 0 -93 37.5t-36 106.5v207h100v-200q0 -29 15 -45t46 -16q36 0 55.5 19.5t19.5 57.5v184h100v-342h-100v44q-17 -28 -44 -40.5t-63 -12.5zM85 548h113l50 -152h-78z" />
    <glyph glyph-name="uacute" unicode="&#xfa;" horiz-adv-x="413" 
d="M166 -9q-57 0 -93 37.5t-36 106.5v207h100v-200q0 -29 15 -45t46 -16q36 0 55.5 19.5t19.5 57.5v184h100v-342h-100v44q-17 -28 -44 -40.5t-63 -12.5zM217 548h113l-85 -152h-78z" />
    <glyph glyph-name="ucircumflex" unicode="&#xfb;" horiz-adv-x="413" 
d="M166 -9q-57 0 -93 37.5t-36 106.5v207h100v-200q0 -29 15 -45t46 -16q36 0 55.5 19.5t19.5 57.5v184h100v-342h-100v44q-17 -28 -44 -40.5t-63 -12.5zM204 551h5l129 -152h-79l-52 43l-53 -43h-79z" />
    <glyph glyph-name="udieresis" unicode="&#xfc;" horiz-adv-x="413" 
d="M166 -9q-57 0 -93 37.5t-36 106.5v207h100v-200q0 -29 15 -45t46 -16q36 0 55.5 19.5t19.5 57.5v184h100v-342h-100v44q-17 -28 -44 -40.5t-63 -12.5zM287 410q-22 0 -39.5 16.5t-17.5 40.5t17.5 40.5t39.5 16.5q23 0 40 -16.5t17 -40.5t-17 -40.5t-40 -16.5zM125 410
q-22 0 -39.5 16.5t-17.5 40.5t17.5 40.5t39.5 16.5q23 0 40 -16.5t17 -40.5t-17 -40.5t-40 -16.5z" />
    <glyph glyph-name="yacute" unicode="&#xfd;" horiz-adv-x="379" 
d="M3 342h112l82 -197l80 197h99l-231 -554h-100l102 243zM208 548h113l-85 -152h-78z" />
    <glyph glyph-name="thorn" unicode="&#xfe;" horiz-adv-x="435" 
d="M42 710h100v-407q14 23 40.5 35.5t65.5 12.5q33 0 62.5 -13.5t51.5 -37.5t34.5 -57t12.5 -72t-12.5 -72t-34.5 -57t-51.5 -37.5t-62.5 -13.5q-39 0 -65.5 12.5t-40.5 35.5v-251h-100v922zM222 79q38 0 61 25t23 67t-23 67t-61 25t-60 -25t-22 -67t22 -67t60 -25z" />
    <glyph glyph-name="ydieresis" unicode="&#xff;" horiz-adv-x="379" 
d="M3 342h112l82 -197l80 197h99l-231 -554h-100l102 243zM278 410q-22 0 -39.5 16.5t-17.5 40.5t17.5 40.5t39.5 16.5q23 0 40 -16.5t17 -40.5t-17 -40.5t-40 -16.5zM116 410q-22 0 -39.5 16.5t-17.5 40.5t17.5 40.5t39.5 16.5q23 0 40 -16.5t17 -40.5t-17 -40.5t-40 -16.5
z" />
    <glyph glyph-name="Amacron" unicode="&#x100;" horiz-adv-x="645" 
d="M214 813h212v-76h-212v76zM129 0h-108l298 694h6l299 -694h-113l-39 95h-304zM321 459l-113 -269h224z" />
    <glyph glyph-name="amacron" unicode="&#x101;" horiz-adv-x="380" 
d="M85 497h212v-76h-212v76zM243 205q-1 35 -18.5 48.5t-44.5 13.5t-47 -10t-35 -27l-61 56q57 65 149 65q73 0 115 -37.5t42 -113.5v-200h-100v31q-34 -40 -96 -40q-26 0 -49 6.5t-40.5 20.5t-27.5 35.5t-10 51.5q0 25 10.5 44t28.5 31.5t42.5 18.5t52.5 6h89zM159 137
q-20 0 -30 -9t-10 -24q0 -14 10.5 -23.5t35.5 -9.5q34 0 56 15.5t22 36.5v14h-84z" />
    <glyph glyph-name="Abreve" unicode="&#x102;" horiz-adv-x="645" 
d="M129 0h-108l298 694h6l299 -694h-113l-39 95h-304zM321 459l-113 -269h224zM322 728q-55 0 -87 30.5t-40 74.5l80 12q5 -18 16 -28.5t31 -10.5t31 10.5t16 28.5l80 -12q-8 -44 -40 -74.5t-87 -30.5z" />
    <glyph glyph-name="abreve" unicode="&#x103;" horiz-adv-x="380" 
d="M192 398q-55 0 -87 30.5t-40 74.5l80 12q5 -18 16 -28.5t31 -10.5t31 10.5t16 28.5l80 -12q-8 -44 -40 -74.5t-87 -30.5zM243 205q-1 35 -18.5 48.5t-44.5 13.5t-47 -10t-35 -27l-61 56q57 65 149 65q73 0 115 -37.5t42 -113.5v-200h-100v31q-34 -40 -96 -40
q-26 0 -49 6.5t-40.5 20.5t-27.5 35.5t-10 51.5q0 25 10.5 44t28.5 31.5t42.5 18.5t52.5 6h89zM159 137q-20 0 -30 -9t-10 -24q0 -14 10.5 -23.5t35.5 -9.5q34 0 56 15.5t22 36.5v14h-84z" />
    <glyph glyph-name="Aogonek" unicode="&#x104;" horiz-adv-x="645" 
d="M168 95l-39 -95h-108l298 694h6l296 -687q-38 -47 -56 -77t-18 -52q0 -13 6.5 -18.5t15.5 -5.5t16 4t12 9l47 -47q-17 -19 -37.5 -28.5t-55.5 -9.5q-43 0 -68.5 23t-25.5 65t24.5 74t52.5 56h-23l-39 95h-304zM432 190l-111 269l-113 -269h224z" />
    <glyph glyph-name="aogonek" unicode="&#x105;" horiz-adv-x="380" 
d="M273 -218q-43 0 -68.5 23t-25.5 65q0 38 19.5 67t44.5 52v42q-34 -40 -96 -40q-26 0 -49 6.5t-40.5 20.5t-27.5 35.5t-10 51.5q0 25 10.5 44t28.5 31.5t42.5 18.5t52.5 6h89q-1 35 -18.5 48.5t-44.5 13.5t-47 -10t-35 -27l-61 56q57 65 149 65q73 0 115 -37.5t42 -113.5
v-192q-38 -47 -56 -77.5t-18 -52.5q0 -13 6.5 -18.5t15.5 -5.5t16 4t12 9l47 -47q-17 -19 -37.5 -28.5t-55.5 -9.5zM159 137q-20 0 -30 -9t-10 -24q0 -14 10.5 -23.5t35.5 -9.5q34 0 56 15.5t22 36.5v14h-84z" />
    <glyph glyph-name="Cacute" unicode="&#x106;" horiz-adv-x="710" 
d="M385 -9q-73 0 -135.5 26.5t-109 73t-73 110.5t-26.5 139t27 139t74 110.5t110 73t136 26.5q95 0 161 -34.5t111 -97.5l-82 -58q-34 46 -79.5 69.5t-113.5 23.5q-51 0 -93.5 -19t-73.5 -53t-48.5 -80t-17.5 -100q0 -55 18 -101.5t49.5 -80t75 -52t94.5 -18.5
q66 0 116 24.5t88 74.5l83 -57q-53 -70 -122 -104.5t-169 -34.5zM388 877h113l-85 -152h-78z" />
    <glyph glyph-name="cacute" unicode="&#x107;" horiz-adv-x="377" 
d="M208 -9q-39 0 -72.5 13.5t-57.5 37.5t-38 57t-14 72t14 72t38 57t57 37.5t71 13.5q52 0 86 -16.5t57 -43.5l-66 -61q-13 14 -32 24t-42 10q-37 0 -58.5 -27t-21.5 -66t21.5 -66t60.5 -27q29 0 47.5 11.5t30.5 24.5l66 -60q-25 -29 -59 -46t-88 -17zM212 548h113l-85 -152
h-78z" />
    <glyph glyph-name="Ccircumflex" unicode="&#x108;" horiz-adv-x="710" 
d="M385 -9q-73 0 -135.5 26.5t-109 73t-73 110.5t-26.5 139t27 139t74 110.5t110 73t136 26.5q95 0 161 -34.5t111 -97.5l-82 -58q-34 46 -79.5 69.5t-113.5 23.5q-51 0 -93.5 -19t-73.5 -53t-48.5 -80t-17.5 -100q0 -55 18 -101.5t49.5 -80t75 -52t94.5 -18.5
q66 0 116 24.5t88 74.5l83 -57q-53 -70 -122 -104.5t-169 -34.5zM375 881h5l129 -152h-79l-52 43l-53 -43h-79z" />
    <glyph glyph-name="ccircumflex" unicode="&#x109;" horiz-adv-x="377" 
d="M199 551h5l129 -152h-79l-52 43l-53 -43h-79zM208 -9q-39 0 -72.5 13.5t-57.5 37.5t-38 57t-14 72t14 72t38 57t57 37.5t71 13.5q52 0 86 -16.5t57 -43.5l-66 -61q-13 14 -32 24t-42 10q-37 0 -58.5 -27t-21.5 -66t21.5 -66t60.5 -27q29 0 47.5 11.5t30.5 24.5l66 -60
q-25 -29 -59 -46t-88 -17z" />
    <glyph glyph-name="Cdotaccent" unicode="&#x10a;" horiz-adv-x="710" 
d="M385 -9q-73 0 -135.5 26.5t-109 73t-73 110.5t-26.5 139t27 139t74 110.5t110 73t136 26.5q95 0 161 -34.5t111 -97.5l-82 -58q-34 46 -79.5 69.5t-113.5 23.5q-51 0 -93.5 -19t-73.5 -53t-48.5 -80t-17.5 -100q0 -55 18 -101.5t49.5 -80t75 -52t94.5 -18.5
q66 0 116 24.5t88 74.5l83 -57q-53 -70 -122 -104.5t-169 -34.5zM378 722q-25 0 -44 18t-19 45t19 45t44 18q26 0 44.5 -18t18.5 -45t-18.5 -45t-44.5 -18z" />
    <glyph glyph-name="cdotaccent" unicode="&#x10b;" horiz-adv-x="377" 
d="M208 -9q-39 0 -72.5 13.5t-57.5 37.5t-38 57t-14 72t14 72t38 57t57 37.5t71 13.5q52 0 86 -16.5t57 -43.5l-66 -61q-13 14 -32 24t-42 10q-37 0 -58.5 -27t-21.5 -66t21.5 -66t60.5 -27q29 0 47.5 11.5t30.5 24.5l66 -60q-25 -29 -59 -46t-88 -17zM201 406q-25 0 -44 18
t-19 45t19 45t44 18q26 0 44.5 -18t18.5 -45t-18.5 -45t-44.5 -18z" />
    <glyph glyph-name="Ccaron" unicode="&#x10c;" horiz-adv-x="710" 
d="M385 -9q-73 0 -135.5 26.5t-109 73t-73 110.5t-26.5 139t27 139t74 110.5t110 73t136 26.5q95 0 161 -34.5t111 -97.5l-82 -58q-34 46 -79.5 69.5t-113.5 23.5q-51 0 -93.5 -19t-73.5 -53t-48.5 -80t-17.5 -100q0 -55 18 -101.5t49.5 -80t75 -52t94.5 -18.5
q66 0 116 24.5t88 74.5l83 -57q-53 -70 -122 -104.5t-169 -34.5zM246 877h79l52 -43l53 43h79l-129 -152h-5z" />
    <glyph glyph-name="ccaron" unicode="&#x10d;" horiz-adv-x="377" 
d="M208 -9q-39 0 -72.5 13.5t-57.5 37.5t-38 57t-14 72t14 72t38 57t57 37.5t71 13.5q52 0 86 -16.5t57 -43.5l-66 -61q-13 14 -32 24t-42 10q-37 0 -58.5 -27t-21.5 -66t21.5 -66t60.5 -27q29 0 47.5 11.5t30.5 24.5l66 -60q-25 -29 -59 -46t-88 -17zM70 548h79l52 -43
l53 43h79l-129 -152h-5z" />
    <glyph glyph-name="Dcaron" unicode="&#x10e;" horiz-adv-x="665" 
d="M74 680h192q83 0 149.5 -25t113 -70t71 -107.5t24.5 -137.5t-24.5 -137.5t-71 -107.5t-112.5 -70t-150 -25h-192v680zM260 95q66 0 114 18t78.5 50.5t45.5 77.5t15 99t-15 99t-45.5 77.5t-78.5 50.5t-114 18h-79v-490h79zM169 878h79l52 -43l53 43h79l-129 -152h-5z" />
    <glyph glyph-name="dcaron" unicode="&#x10f;" horiz-adv-x="569" 
d="M479 560q-16 8 -29 23.5t-13 38.5q0 29 20.5 48t47.5 19q26 0 46.5 -18.5t20.5 -47.5q0 -20 -6 -36.5t-17 -33.5l-53 -85h-51zM187 -9q-33 0 -62.5 13.5t-51.5 37.5t-34.5 57t-12.5 72t12.5 72t34.5 57t51.5 37.5t62.5 13.5q39 0 65.5 -12.5t40.5 -35.5v407h100v-710
h-100v39q-14 -23 -40.5 -35.5t-65.5 -12.5zM213 79q38 0 60 25t22 67t-22 67t-60 25t-61 -25t-23 -67t23 -67t61 -25z" />
    <glyph glyph-name="Dcroat" unicode="&#x110;" horiz-adv-x="665" 
d="M11 210v93h63v377h192q83 0 149.5 -25t113 -70t71 -107.5t24.5 -137.5t-24.5 -137.5t-71 -107.5t-112.5 -70t-150 -25h-192v210h-63zM345 303v-93h-164v-115h79q66 0 114 18t78.5 50.5t45.5 77.5t15 99t-15 99t-45.5 77.5t-78.5 50.5t-114 18h-79v-282h164z" />
    <glyph glyph-name="dcroat" unicode="&#x111;" horiz-adv-x="445" 
d="M210 464v83h83v163h100v-163h51v-83h-51v-464h-100v39q-14 -23 -40.5 -35.5t-65.5 -12.5q-33 0 -62.5 13.5t-51.5 37.5t-34.5 57t-12.5 72t12.5 72t34.5 57t51.5 37.5t62.5 13.5q39 0 65.5 -12.5t40.5 -35.5v161h-83zM213 79q38 0 60 25t22 67t-22 67t-60 25t-61 -25
t-23 -67t23 -67t61 -25z" />
    <glyph glyph-name="Emacron" unicode="&#x112;" horiz-adv-x="572" 
d="M190 814h212v-76h-212v76zM74 680h433v-95h-326v-282h289v-93h-289v-115h340v-95h-447v680z" />
    <glyph glyph-name="emacron" unicode="&#x113;" horiz-adv-x="416" 
d="M105 497h212v-76h-212v76zM130 137q8 -29 29.5 -45.5t59.5 -16.5q33 0 54 10.5t35 22.5l60 -60q-23 -25 -58 -41t-89 -16q-45 0 -81 13.5t-61.5 37.5t-39 57t-13.5 72t14.5 72t39 57t58.5 37.5t73 13.5q45 0 80 -16.5t58 -45.5t34 -68t8 -84h-261zM286 207q-5 26 -24 43
t-51 17q-31 0 -51.5 -15.5t-28.5 -44.5h155z" />
    <glyph glyph-name="Ebreve" unicode="&#x114;" horiz-adv-x="572" 
d="M74 680h433v-95h-326v-282h289v-93h-289v-115h340v-95h-447v680zM306 720q-55 0 -87 30.5t-40 74.5l80 12q5 -18 16 -28.5t31 -10.5t31 10.5t16 28.5l80 -12q-8 -44 -40 -74.5t-87 -30.5z" />
    <glyph glyph-name="ebreve" unicode="&#x115;" horiz-adv-x="416" 
d="M130 137q8 -29 29.5 -45.5t59.5 -16.5q33 0 54 10.5t35 22.5l60 -60q-23 -25 -58 -41t-89 -16q-45 0 -81 13.5t-61.5 37.5t-39 57t-13.5 72t14.5 72t39 57t58.5 37.5t73 13.5q45 0 80 -16.5t58 -45.5t34 -68t8 -84h-261zM286 207q-5 26 -24 43t-51 17q-31 0 -51.5 -15.5
t-28.5 -44.5h155zM213 398q-55 0 -87 30.5t-40 74.5l80 12q5 -18 16 -28.5t31 -10.5t31 10.5t16 28.5l80 -12q-8 -44 -40 -74.5t-87 -30.5z" />
    <glyph glyph-name="Edotaccent" unicode="&#x116;" horiz-adv-x="572" 
d="M303 723q-25 0 -44 18t-19 45t19 45t44 18q26 0 44.5 -18t18.5 -45t-18.5 -45t-44.5 -18zM74 680h433v-95h-326v-282h289v-93h-289v-115h340v-95h-447v680z" />
    <glyph glyph-name="edotaccent" unicode="&#x117;" horiz-adv-x="416" 
d="M212 406q-25 0 -44 18t-19 45t19 45t44 18q26 0 44.5 -18t18.5 -45t-18.5 -45t-44.5 -18zM130 137q8 -29 29.5 -45.5t59.5 -16.5q33 0 54 10.5t35 22.5l60 -60q-23 -25 -58 -41t-89 -16q-45 0 -81 13.5t-61.5 37.5t-39 57t-13.5 72t14.5 72t39 57t58.5 37.5t73 13.5
q45 0 80 -16.5t58 -45.5t34 -68t8 -84h-261zM286 207q-5 26 -24 43t-51 17q-31 0 -51.5 -15.5t-28.5 -44.5h155z" />
    <glyph glyph-name="Eogonek" unicode="&#x118;" horiz-adv-x="572" 
d="M74 680h433v-95h-326v-282h289v-93h-289v-115h340v-95h-50q-33 -42 -50.5 -71t-17.5 -51q0 -13 6.5 -18.5t15.5 -5.5t16 4t12 9l47 -47q-17 -19 -37.5 -28.5t-55.5 -9.5q-43 0 -68.5 23t-25.5 65t24.5 74t52.5 56h-316v680z" />
    <glyph glyph-name="eogonek" unicode="&#x119;" horiz-adv-x="416" 
d="M250 -218q-43 0 -68.5 23t-25.5 65q0 19 6.5 36t17 32t24 28.5t26.5 24.5h-9q-45 0 -81 13.5t-61.5 37.5t-39 57t-13.5 72t14.5 72t39 57t58.5 37.5t73 13.5q45 0 80 -16.5t58 -45.5t34 -68t8 -84h-261q8 -29 29.5 -45.5t59.5 -16.5q33 0 54 10.5t35 22.5l60 -60
q-20 -20 -42 -43t-41 -46q-17 -21 -28 -41t-11 -40q0 -13 6.5 -18.5t15.5 -5.5t16 4t12 9l47 -47q-17 -19 -37.5 -28.5t-55.5 -9.5zM286 207q-5 26 -24 43t-51 17q-31 0 -51.5 -15.5t-28.5 -44.5h155z" />
    <glyph glyph-name="Ecaron" unicode="&#x11a;" horiz-adv-x="572" 
d="M74 680h433v-95h-326v-282h289v-93h-289v-115h340v-95h-447v680zM172 878h79l52 -43l53 43h79l-129 -152h-5z" />
    <glyph glyph-name="ecaron" unicode="&#x11b;" horiz-adv-x="416" 
d="M130 137q8 -29 29.5 -45.5t59.5 -16.5q33 0 54 10.5t35 22.5l60 -60q-23 -25 -58 -41t-89 -16q-45 0 -81 13.5t-61.5 37.5t-39 57t-13.5 72t14.5 72t39 57t58.5 37.5t73 13.5q45 0 80 -16.5t58 -45.5t34 -68t8 -84h-261zM286 207q-5 26 -24 43t-51 17q-31 0 -51.5 -15.5
t-28.5 -44.5h155zM81 548h79l52 -43l53 43h79l-129 -152h-5z" />
    <glyph glyph-name="Gcircumflex" unicode="&#x11c;" horiz-adv-x="723" 
d="M405 -9q-78 0 -145 26.5t-115.5 73t-76 110.5t-27.5 139t27 139t74.5 110.5t111 73t136.5 26.5q47 0 85.5 -8t70 -22.5t56.5 -34t46 -43.5l-74 -70q-15 17 -32.5 31.5t-39.5 25.5t-50 17.5t-65 6.5q-52 0 -95 -19t-74 -53t-48.5 -80t-17.5 -100t17.5 -100t50.5 -80
t80 -53t105 -19q56 0 96 11.5t69 31.5v77h-182v95h281v-223q-21 -18 -47 -34t-58.5 -28t-71.5 -19.5t-87 -7.5zM374 881h5l129 -152h-79l-52 43l-53 -43h-79z" />
    <glyph glyph-name="gcircumflex" unicode="&#x11d;" horiz-adv-x="395" 
d="M368 342v-76h-49q6 -11 10 -24t4 -27q0 -30 -11 -55t-30.5 -43t-46.5 -28t-58 -10q-36 0 -67 13q-9 -9 -9 -22q0 -7 3 -12.5t12 -9t27 -6.5t48 -4q48 -3 81.5 -12.5t54 -26t29.5 -39t9 -50.5q0 -58 -43.5 -95.5t-138.5 -37.5q-92 0 -140 33.5t-48 87.5q0 36 18 57t49 32
q-22 10 -33 29t-11 42q0 48 47 70q-16 17 -25 39t-9 48q0 30 11 55t30.5 43t46 28t58.5 10t56 -9h125zM187 158q27 0 43 15.5t16 41.5t-16 41.5t-43 15.5t-43 -15.5t-16 -41.5t16 -41.5t43 -15.5zM193 -138q45 0 64 12.5t19 32.5t-20 31t-79 11q-38 0 -58.5 -9t-20.5 -33
q0 -21 24 -33t71 -12zM195 551h5l129 -152h-79l-52 43l-53 -43h-79z" />
    <glyph glyph-name="Gbreve" unicode="&#x11e;" horiz-adv-x="723" 
d="M405 -9q-78 0 -145 26.5t-115.5 73t-76 110.5t-27.5 139t27 139t74.5 110.5t111 73t136.5 26.5q47 0 85.5 -8t70 -22.5t56.5 -34t46 -43.5l-74 -70q-15 17 -32.5 31.5t-39.5 25.5t-50 17.5t-65 6.5q-52 0 -95 -19t-74 -53t-48.5 -80t-17.5 -100t17.5 -100t50.5 -80
t80 -53t105 -19q56 0 96 11.5t69 31.5v77h-182v95h281v-223q-21 -18 -47 -34t-58.5 -28t-71.5 -19.5t-87 -7.5zM375 728q-55 0 -87 30.5t-40 74.5l80 12q5 -18 16 -28.5t31 -10.5t31 10.5t16 28.5l80 -12q-8 -44 -40 -74.5t-87 -30.5z" />
    <glyph glyph-name="gbreve" unicode="&#x11f;" horiz-adv-x="395" 
d="M368 342v-76h-49q6 -11 10 -24t4 -27q0 -30 -11 -55t-30.5 -43t-46.5 -28t-58 -10q-36 0 -67 13q-9 -9 -9 -22q0 -7 3 -12.5t12 -9t27 -6.5t48 -4q48 -3 81.5 -12.5t54 -26t29.5 -39t9 -50.5q0 -58 -43.5 -95.5t-138.5 -37.5q-92 0 -140 33.5t-48 87.5q0 36 18 57t49 32
q-22 10 -33 29t-11 42q0 48 47 70q-16 17 -25 39t-9 48q0 30 11 55t30.5 43t46 28t58.5 10t56 -9h125zM187 158q27 0 43 15.5t16 41.5t-16 41.5t-43 15.5t-43 -15.5t-16 -41.5t16 -41.5t43 -15.5zM193 -138q45 0 64 12.5t19 32.5t-20 31t-79 11q-38 0 -58.5 -9t-20.5 -33
q0 -21 24 -33t71 -12zM195 398q-55 0 -87 30.5t-40 74.5l80 12q5 -18 16 -28.5t31 -10.5t31 10.5t16 28.5l80 -12q-8 -44 -40 -74.5t-87 -30.5z" />
    <glyph glyph-name="Gdotaccent" unicode="&#x120;" horiz-adv-x="723" 
d="M405 -9q-78 0 -145 26.5t-115.5 73t-76 110.5t-27.5 139t27 139t74.5 110.5t111 73t136.5 26.5q47 0 85.5 -8t70 -22.5t56.5 -34t46 -43.5l-74 -70q-15 17 -32.5 31.5t-39.5 25.5t-50 17.5t-65 6.5q-52 0 -95 -19t-74 -53t-48.5 -80t-17.5 -100t17.5 -100t50.5 -80
t80 -53t105 -19q56 0 96 11.5t69 31.5v77h-182v95h281v-223q-21 -18 -47 -34t-58.5 -28t-71.5 -19.5t-87 -7.5zM391 727q-25 0 -44 18t-19 45t19 45t44 18q26 0 44.5 -18t18.5 -45t-18.5 -45t-44.5 -18z" />
    <glyph glyph-name="gdotaccent" unicode="&#x121;" horiz-adv-x="395" 
d="M368 342v-76h-49q6 -11 10 -24t4 -27q0 -30 -11 -55t-30.5 -43t-46.5 -28t-58 -10q-36 0 -67 13q-9 -9 -9 -22q0 -7 3 -12.5t12 -9t27 -6.5t48 -4q48 -3 81.5 -12.5t54 -26t29.5 -39t9 -50.5q0 -58 -43.5 -95.5t-138.5 -37.5q-92 0 -140 33.5t-48 87.5q0 36 18 57t49 32
q-22 10 -33 29t-11 42q0 48 47 70q-16 17 -25 39t-9 48q0 30 11 55t30.5 43t46 28t58.5 10t56 -9h125zM187 158q27 0 43 15.5t16 41.5t-16 41.5t-43 15.5t-43 -15.5t-16 -41.5t16 -41.5t43 -15.5zM193 -138q45 0 64 12.5t19 32.5t-20 31t-79 11q-38 0 -58.5 -9t-20.5 -33
q0 -21 24 -33t71 -12zM198 406q-25 0 -44 18t-19 45t19 45t44 18q26 0 44.5 -18t18.5 -45t-18.5 -45t-44.5 -18z" />
    <glyph glyph-name="Gcommaaccent" unicode="&#x122;" horiz-adv-x="723" 
d="M351 -165q-16 8 -29 23.5t-13 38.5q0 29 20.5 48t47.5 19q26 0 46.5 -18.5t20.5 -47.5q0 -20 -6 -36.5t-17 -33.5l-53 -85h-51zM405 -9q-78 0 -145 26.5t-115.5 73t-76 110.5t-27.5 139t27 139t74.5 110.5t111 73t136.5 26.5q47 0 85.5 -8t70 -22.5t56.5 -34t46 -43.5
l-74 -70q-15 17 -32.5 31.5t-39.5 25.5t-50 17.5t-65 6.5q-52 0 -95 -19t-74 -53t-48.5 -80t-17.5 -100t17.5 -100t50.5 -80t80 -53t105 -19q56 0 96 11.5t69 31.5v77h-182v95h281v-223q-21 -18 -47 -34t-58.5 -28t-71.5 -19.5t-87 -7.5z" />
    <glyph glyph-name="gcommaaccent" unicode="&#x123;" horiz-adv-x="395" 
d="M197 398q-26 0 -46.5 18.5t-20.5 47.5q0 20 6 36.5t17 33.5l53 85h51l-34 -92q16 -8 29 -23.5t13 -38.5q0 -29 -20.5 -48t-47.5 -19zM368 342v-76h-49q6 -11 10 -24t4 -27q0 -30 -11 -55t-30.5 -43t-46.5 -28t-58 -10q-36 0 -67 13q-9 -9 -9 -22q0 -7 3 -12.5t12 -9
t27 -6.5t48 -4q48 -3 81.5 -12.5t54 -26t29.5 -39t9 -50.5q0 -58 -43.5 -95.5t-138.5 -37.5q-92 0 -140 33.5t-48 87.5q0 36 18 57t49 32q-22 10 -33 29t-11 42q0 48 47 70q-16 17 -25 39t-9 48q0 30 11 55t30.5 43t46 28t58.5 10t56 -9h125zM187 158q27 0 43 15.5t16 41.5
t-16 41.5t-43 15.5t-43 -15.5t-16 -41.5t16 -41.5t43 -15.5zM193 -138q45 0 64 12.5t19 32.5t-20 31t-79 11q-38 0 -58.5 -9t-20.5 -33q0 -21 24 -33t71 -12z" />
    <glyph glyph-name="Hcircumflex" unicode="&#x124;" horiz-adv-x="688" 
d="M507 680h107v-680h-107v208h-326v-208h-107v680h107v-377h326v377zM342 881h5l129 -152h-79l-52 43l-53 -43h-79z" />
    <glyph glyph-name="hcircumflex" unicode="&#x125;" horiz-adv-x="413" 
d="M40 710h100v-412q17 27 44 40t63 13q57 0 93 -37.5t36 -106.5v-207h-100v200q0 29 -15 45t-46 16q-36 0 -55.5 -19.5t-19.5 -57.5v-184h-100v710zM189 900h5l129 -152h-79l-52 43l-53 -43h-79z" />
    <glyph glyph-name="Hbar" unicode="&#x126;" horiz-adv-x="700" 
d="M20 525h61v155h107v-155h326v155h107v-155h59v-79h-59v-446h-107v208h-326v-208h-107v446h-61v79zM514 446h-326v-143h326v143z" />
    <glyph glyph-name="hbar" unicode="&#x127;" horiz-adv-x="413" 
d="M-11 547h51v163h100v-163h83v-83h-83v-166q17 27 44 40t63 13q57 0 93 -37.5t36 -106.5v-207h-100v200q0 29 -15 45t-46 16q-36 0 -55.5 -19.5t-19.5 -57.5v-184h-100v464h-51v83z" />
    <glyph glyph-name="Itilde" unicode="&#x128;" horiz-adv-x="261" 
d="M77 680h107v-680h-107v680zM179 723q-17 0 -29.5 4.5t-22.5 9.5t-18.5 9.5t-17.5 4.5t-15 -5t-11 -22l-68 9q7 47 30 73.5t56 26.5q17 0 29.5 -4.5t22.5 -9.5t18.5 -9.5t17.5 -4.5t15 5t11 22l68 -9q-7 -47 -30 -73.5t-56 -26.5z" />
    <glyph glyph-name="itilde" unicode="&#x129;" horiz-adv-x="184" 
d="M42 342h100v-342h-100v342zM141 408q-17 0 -29.5 4.5t-22.5 9.5t-18.5 9.5t-17.5 4.5t-15 -5t-11 -22l-68 9q7 47 30 73.5t56 26.5q17 0 29.5 -4.5t22.5 -9.5t18.5 -9.5t17.5 -4.5t15 5t11 22l68 -9q-7 -47 -30 -73.5t-56 -26.5z" />
    <glyph glyph-name="uni012A" unicode="&#x12a;" horiz-adv-x="261" 
d="M32 823h198v-76h-198v76zM77 680h107v-680h-107v680z" />
    <glyph glyph-name="imacron" unicode="&#x12b;" horiz-adv-x="184" 
d="M42 342h100v-342h-100v342zM3 497h178v-76h-178v76z" />
    <glyph glyph-name="Ibreve" unicode="&#x12c;" horiz-adv-x="261" 
d="M77 680h107v-680h-107v680zM132 721q-55 0 -87 30.5t-40 74.5l80 12q5 -18 16 -28.5t31 -10.5t31 10.5t16 28.5l80 -12q-8 -44 -40 -74.5t-87 -30.5z" />
    <glyph glyph-name="uni012D" unicode="&#x12d;" horiz-adv-x="184" 
d="M42 342h100v-342h-100v342zM93 398q-55 0 -87 30.5t-40 74.5l80 12q5 -18 16 -28.5t31 -10.5t31 10.5t16 28.5l80 -12q-8 -44 -40 -74.5t-87 -30.5z" />
    <glyph glyph-name="Iogonek" unicode="&#x12e;" horiz-adv-x="261" 
d="M77 680h107v-671q-39 -47 -57.5 -78t-18.5 -53q0 -13 6.5 -18.5t15.5 -5.5t16 4t12 9l47 -47q-17 -19 -37.5 -28.5t-55.5 -9.5q-43 0 -68.5 23t-25.5 65t24.5 74t52.5 56h-18v680z" />
    <glyph glyph-name="iogonek" unicode="&#x12f;" horiz-adv-x="184" 
d="M-15 -130q0 38 16.5 66.5t40.5 51.5v354h100v-334q-38 -48 -52.5 -78t-14.5 -52q0 -13 6.5 -18.5t15.5 -5.5t16 4t12 9l47 -47q-17 -19 -37.5 -28.5t-55.5 -9.5q-43 0 -68.5 23t-25.5 65zM92 406q-25 0 -44 18t-19 45t19 45t44 18q26 0 44.5 -18t18.5 -45t-18.5 -45
t-44.5 -18z" />
    <glyph glyph-name="Idotaccent" unicode="&#x130;" horiz-adv-x="261" 
d="M131 722q-25 0 -44 18t-19 45t19 45t44 18q26 0 44.5 -18t18.5 -45t-18.5 -45t-44.5 -18zM77 680h107v-680h-107v680z" />
    <glyph glyph-name="dotlessi" unicode="&#x131;" horiz-adv-x="184" 
d="M42 342h100v-342h-100v342z" />
    <glyph glyph-name="IJ" unicode="&#x132;" horiz-adv-x="736" 
d="M77 680h107v-680h-107v680zM473 -9q-39 0 -70 9t-55 25t-42 37t-30 45l88 54q18 -32 40.5 -52.5t64.5 -20.5q39 0 64 22t25 83v487h108v-489q0 -51 -14.5 -88.5t-40 -62t-61 -37t-77.5 -12.5z" />
    <glyph glyph-name="ij" unicode="&#x133;" horiz-adv-x="368" 
d="M92 406q-25 0 -44 18t-19 45t19 45t44 18q26 0 44.5 -18t18.5 -45t-18.5 -45t-44.5 -18zM42 342h100v-342h-100v342zM276 406q-25 0 -44 18t-19 45t19 45t44 18q26 0 44.5 -18t18.5 -45t-18.5 -45t-44.5 -18zM216 -222q-36 0 -58.5 11t-36.5 27l49 61q6 -5 13.5 -9
t15.5 -4q27 0 27 31v447h100v-444q0 -58 -28.5 -89t-81.5 -31z" />
    <glyph glyph-name="Jcircumflex" unicode="&#x134;" horiz-adv-x="475" 
d="M212 -9q-39 0 -70 9t-55 25t-42 37t-30 45l88 54q18 -32 40.5 -52.5t64.5 -20.5q39 0 64 22t25 83v487h108v-489q0 -51 -14.5 -88.5t-40 -62t-61 -37t-77.5 -12.5zM347 881h5l129 -152h-79l-52 43l-53 -43h-79z" />
    <glyph glyph-name="jcircumflex" unicode="&#x135;" horiz-adv-x="184" 
d="M90 551h5l129 -152h-79l-52 43l-53 -43h-79zM32 -222q-36 0 -58.5 11t-36.5 27l49 61q6 -5 13.5 -9t15.5 -4q27 0 27 31v447h100v-444q0 -58 -28.5 -89t-81.5 -31z" />
    <glyph glyph-name="Kcommaaccent" unicode="&#x136;" horiz-adv-x="616" 
d="M283 -165q-16 8 -29 23.5t-13 38.5q0 29 20.5 48t47.5 19q26 0 46.5 -18.5t20.5 -47.5q0 -20 -6 -36.5t-17 -33.5l-53 -85h-51zM446 680h121l-241 -305l277 -375h-130l-217 294l-75 -92v-202h-107v680h107v-337z" />
    <glyph glyph-name="kcommaaccent" unicode="&#x137;" horiz-adv-x="389" 
d="M169 -165q-16 8 -29 23.5t-13 38.5q0 29 20.5 48t47.5 19q26 0 46.5 -18.5t20.5 -47.5q0 -20 -6 -36.5t-17 -33.5l-53 -85h-51zM140 0h-100v710h100v-501l112 133h116l-122 -140l136 -202h-119l-84 126l-39 -44v-82z" />
    <glyph glyph-name="Lacute" unicode="&#x139;" horiz-adv-x="515" 
d="M74 680h107v-585h300v-95h-407v680zM138 878h113l-85 -152h-78z" />
    <glyph glyph-name="lacute" unicode="&#x13a;" horiz-adv-x="184" 
d="M42 710h100v-710h-100v710zM104 900h113l-85 -152h-78z" />
    <glyph glyph-name="Lcommaaccent" unicode="&#x13b;" horiz-adv-x="515" 
d="M260 -165q-16 8 -29 23.5t-13 38.5q0 29 20.5 48t47.5 19q26 0 46.5 -18.5t20.5 -47.5q0 -20 -6 -36.5t-17 -33.5l-53 -85h-51zM74 680h107v-585h300v-95h-407v680z" />
    <glyph glyph-name="lcommaaccent" unicode="&#x13c;" horiz-adv-x="184" 
d="M68 -165q-16 8 -29 23.5t-13 38.5q0 29 20.5 48t47.5 19q26 0 46.5 -18.5t20.5 -47.5q0 -20 -6 -36.5t-17 -33.5l-53 -85h-51zM42 710h100v-710h-100v710z" />
    <glyph glyph-name="Lcaron" unicode="&#x13d;" horiz-adv-x="515" 
d="M320 560q-16 8 -29 23.5t-13 38.5q0 29 20.5 48t47.5 19q26 0 46.5 -18.5t20.5 -47.5q0 -20 -6 -36.5t-17 -33.5l-53 -85h-51zM74 680h107v-585h300v-95h-407v680z" />
    <glyph glyph-name="lcaron" unicode="&#x13e;" horiz-adv-x="314" 
d="M224 560q-16 8 -29 23.5t-13 38.5q0 29 20.5 48t47.5 19q26 0 46.5 -18.5t20.5 -47.5q0 -20 -6 -36.5t-17 -33.5l-53 -85h-51zM42 710h100v-710h-100v710z" />
    <glyph glyph-name="Ldot" unicode="&#x13f;" horiz-adv-x="515" 
d="M74 680h107v-585h300v-95h-407v680zM391 244q-28 0 -49 19.5t-21 50.5t21 50.5t49 19.5t49 -19.5t21 -50.5t-21 -50.5t-49 -19.5z" />
    <glyph glyph-name="ldot" unicode="&#x140;" horiz-adv-x="334" 
d="M42 710h100v-710h-100v710zM260 244q-28 0 -49 19.5t-21 50.5t21 50.5t49 19.5t49 -19.5t21 -50.5t-21 -50.5t-49 -19.5z" />
    <glyph glyph-name="Lslash" unicode="&#x141;" horiz-adv-x="515" 
d="M181 95h300v-95h-407v173l-63 -21v89l63 21v418h107v-383l193 64v-89l-193 -64v-113z" />
    <glyph glyph-name="lslash" unicode="&#x142;" horiz-adv-x="208" 
d="M154 0h-100v163l-45 -25v90l45 25v457h100v-400l49 28v-90l-49 -28v-220z" />
    <glyph glyph-name="Nacute" unicode="&#x143;" horiz-adv-x="691" 
d="M174 447v-447h-100v690h8l436 -457v447h100v-690h-8zM362 878h113l-85 -152h-78z" />
    <glyph glyph-name="nacute" unicode="&#x144;" horiz-adv-x="410" 
d="M40 342h100v-44q17 28 44 40.5t63 12.5q57 0 93 -37.5t36 -106.5v-207h-100v200q0 29 -15 45t-46 16q-36 0 -55.5 -19.5t-19.5 -57.5v-184h-100v342zM220 548h113l-85 -152h-78z" />
    <glyph glyph-name="Ncommaaccent" unicode="&#x145;" horiz-adv-x="691" 
d="M325 -165q-16 8 -29 23.5t-13 38.5q0 29 20.5 48t47.5 19q26 0 46.5 -18.5t20.5 -47.5q0 -20 -6 -36.5t-17 -33.5l-53 -85h-51zM174 447v-447h-100v690h8l436 -457v447h100v-690h-8z" />
    <glyph glyph-name="ncommaaccent" unicode="&#x146;" horiz-adv-x="410" 
d="M183 -165q-16 8 -29 23.5t-13 38.5q0 29 20.5 48t47.5 19q26 0 46.5 -18.5t20.5 -47.5q0 -20 -6 -36.5t-17 -33.5l-53 -85h-51zM40 342h100v-44q17 28 44 40.5t63 12.5q57 0 93 -37.5t36 -106.5v-207h-100v200q0 29 -15 45t-46 16q-36 0 -55.5 -19.5t-19.5 -57.5v-184
h-100v342z" />
    <glyph glyph-name="Ncaron" unicode="&#x147;" horiz-adv-x="691" 
d="M174 447v-447h-100v690h8l436 -457v447h100v-690h-8zM219 878h79l52 -43l53 43h79l-129 -152h-5z" />
    <glyph glyph-name="ncaron" unicode="&#x148;" horiz-adv-x="410" 
d="M40 342h100v-44q17 28 44 40.5t63 12.5q57 0 93 -37.5t36 -106.5v-207h-100v200q0 29 -15 45t-46 16q-36 0 -55.5 -19.5t-19.5 -57.5v-184h-100v342zM78 548h79l52 -43l53 43h79l-129 -152h-5z" />
    <glyph glyph-name="Omacron" unicode="&#x14c;" horiz-adv-x="784" 
d="M286 813h212v-76h-212v76zM392 -9q-73 0 -137 26.5t-111.5 73t-75 110.5t-27.5 139t27.5 139t75 110.5t111.5 73t137 26.5t137 -26.5t111.5 -73t75 -110.5t27.5 -139t-27.5 -139t-75 -110.5t-111.5 -73t-137 -26.5zM392 88q53 0 97 19t76 53t49.5 80t17.5 100t-17.5 100
t-49.5 80t-76 53t-97 19t-97 -19t-76 -53t-49.5 -80t-17.5 -100t17.5 -100t49.5 -80t76 -53t97 -19z" />
    <glyph glyph-name="omacron" unicode="&#x14d;" horiz-adv-x="426" 
d="M108 497h212v-76h-212v76zM213 -9q-39 0 -73.5 13.5t-59.5 37.5t-39.5 57t-14.5 72t14.5 72t39.5 57t59.5 37.5t73.5 13.5t73.5 -13.5t59.5 -37.5t39.5 -57t14.5 -72t-14.5 -72t-39.5 -57t-59.5 -37.5t-73.5 -13.5zM213 76q39 0 61.5 26.5t22.5 68.5t-22.5 68.5
t-61.5 26.5t-61.5 -26.5t-22.5 -68.5t22.5 -68.5t61.5 -26.5z" />
    <glyph glyph-name="Obreve" unicode="&#x14e;" horiz-adv-x="784" 
d="M392 -9q-73 0 -137 26.5t-111.5 73t-75 110.5t-27.5 139t27.5 139t75 110.5t111.5 73t137 26.5t137 -26.5t111.5 -73t75 -110.5t27.5 -139t-27.5 -139t-75 -110.5t-111.5 -73t-137 -26.5zM392 88q53 0 97 19t76 53t49.5 80t17.5 100t-17.5 100t-49.5 80t-76 53t-97 19
t-97 -19t-76 -53t-49.5 -80t-17.5 -100t17.5 -100t49.5 -80t76 -53t97 -19zM391 721q-55 0 -87 30.5t-40 74.5l80 12q5 -18 16 -28.5t31 -10.5t31 10.5t16 28.5l80 -12q-8 -44 -40 -74.5t-87 -30.5z" />
    <glyph glyph-name="obreve" unicode="&#x14f;" horiz-adv-x="426" 
d="M213 -9q-39 0 -73.5 13.5t-59.5 37.5t-39.5 57t-14.5 72t14.5 72t39.5 57t59.5 37.5t73.5 13.5t73.5 -13.5t59.5 -37.5t39.5 -57t14.5 -72t-14.5 -72t-39.5 -57t-59.5 -37.5t-73.5 -13.5zM213 76q39 0 61.5 26.5t22.5 68.5t-22.5 68.5t-61.5 26.5t-61.5 -26.5
t-22.5 -68.5t22.5 -68.5t61.5 -26.5zM218 398q-55 0 -87 30.5t-40 74.5l80 12q5 -18 16 -28.5t31 -10.5t31 10.5t16 28.5l80 -12q-8 -44 -40 -74.5t-87 -30.5z" />
    <glyph glyph-name="Ohungarumlaut" unicode="&#x150;" horiz-adv-x="784" 
d="M392 -9q-73 0 -137 26.5t-111.5 73t-75 110.5t-27.5 139t27.5 139t75 110.5t111.5 73t137 26.5t137 -26.5t111.5 -73t75 -110.5t27.5 -139t-27.5 -139t-75 -110.5t-111.5 -73t-137 -26.5zM392 88q53 0 97 19t76 53t49.5 80t17.5 100t-17.5 100t-49.5 80t-76 53t-97 19
t-97 -19t-76 -53t-49.5 -80t-17.5 -100t17.5 -100t49.5 -80t76 -53t97 -19zM465 878h101l-68 -152h-78zM325 878h101l-68 -152h-78z" />
    <glyph glyph-name="ohungarumlaut" unicode="&#x151;" horiz-adv-x="426" 
d="M213 -9q-39 0 -73.5 13.5t-59.5 37.5t-39.5 57t-14.5 72t14.5 72t39.5 57t59.5 37.5t73.5 13.5t73.5 -13.5t59.5 -37.5t39.5 -57t14.5 -72t-14.5 -72t-39.5 -57t-59.5 -37.5t-73.5 -13.5zM213 76q39 0 61.5 26.5t22.5 68.5t-22.5 68.5t-61.5 26.5t-61.5 -26.5
t-22.5 -68.5t22.5 -68.5t61.5 -26.5zM288 548h101l-68 -152h-78zM148 548h101l-68 -152h-78z" />
    <glyph glyph-name="OE" unicode="&#x152;" horiz-adv-x="967" 
d="M399 0q-83 0 -149.5 25t-113 70t-71 107.5t-24.5 137.5t24.5 137.5t71 107.5t112.5 70t150 25h503v-95h-326v-283h289v-93h-289v-114h340v-95h-517zM469 95v490h-64q-66 0 -114 -18t-78.5 -50.5t-45.5 -77.5t-15 -99t15 -99t45.5 -77.5t78.5 -50.5t114 -18h64z" />
    <glyph glyph-name="oe" unicode="&#x153;" horiz-adv-x="689" 
d="M348 52q-23 -29 -57 -45t-78 -16q-39 0 -73.5 13.5t-59.5 37.5t-39.5 57t-14.5 72t14.5 72t39.5 57t59.5 37.5t73.5 13.5q44 0 78 -16.5t57 -45.5q23 29 57.5 45.5t78.5 16.5q45 0 80 -17t58 -46t34 -68.5t8 -85.5h-260q8 -27 29.5 -43t58.5 -16q33 0 54 10.5t35 22.5
l60 -60q-23 -25 -58 -41t-89 -16q-50 0 -86.5 16t-59.5 45zM559 204q-5 29 -24 46t-51 17t-52.5 -16.5t-28.5 -46.5h156zM213 76q39 0 61.5 26.5t22.5 68.5t-22.5 68.5t-61.5 26.5t-61.5 -26.5t-22.5 -68.5t22.5 -68.5t61.5 -26.5z" />
    <glyph glyph-name="Racute" unicode="&#x154;" horiz-adv-x="586" 
d="M540 0h-127l-116 165q-23 -3 -49 -3h-67v-162h-107v680h174q70 0 124 -18.5t91 -52.5t56 -82t19 -107q0 -79 -34.5 -137.5t-101.5 -89.5zM244 254q98 0 141 44t43 122t-43 121.5t-141 43.5h-63v-331h63zM273 877h113l-85 -152h-78z" />
    <glyph glyph-name="racute" unicode="&#x155;" horiz-adv-x="302" 
d="M40 342h100v-53q17 35 44 48.5t54 13.5q18 0 31 -4.5t23 -10.5l-32 -86q-20 11 -43 11q-36 0 -56.5 -23t-20.5 -77v-161h-100v342zM179 548h113l-85 -152h-78z" />
    <glyph glyph-name="Rcommaaccent" unicode="&#x156;" horiz-adv-x="586" 
d="M268 -165q-16 8 -29 23.5t-13 38.5q0 29 20.5 48t47.5 19q26 0 46.5 -18.5t20.5 -47.5q0 -20 -6 -36.5t-17 -33.5l-53 -85h-51zM540 0h-127l-116 165q-23 -3 -49 -3h-67v-162h-107v680h174q70 0 124 -18.5t91 -52.5t56 -82t19 -107q0 -79 -34.5 -137.5t-101.5 -89.5z
M244 254q98 0 141 44t43 122t-43 121.5t-141 43.5h-63v-331h63z" />
    <glyph glyph-name="rcommaaccent" unicode="&#x157;" horiz-adv-x="302" 
d="M64 -165q-16 8 -29 23.5t-13 38.5q0 29 20.5 48t47.5 19q26 0 46.5 -18.5t20.5 -47.5q0 -20 -6 -36.5t-17 -33.5l-53 -85h-51zM40 342h100v-53q17 35 44 48.5t54 13.5q18 0 31 -4.5t23 -10.5l-32 -86q-20 11 -43 11q-36 0 -56.5 -23t-20.5 -77v-161h-100v342z" />
    <glyph glyph-name="Rcaron" unicode="&#x158;" horiz-adv-x="586" 
d="M540 0h-127l-116 165q-23 -3 -49 -3h-67v-162h-107v680h174q70 0 124 -18.5t91 -52.5t56 -82t19 -107q0 -79 -34.5 -137.5t-101.5 -89.5zM244 254q98 0 141 44t43 122t-43 121.5t-141 43.5h-63v-331h63zM143 878h79l52 -43l53 43h79l-129 -152h-5z" />
    <glyph glyph-name="rcaron" unicode="&#x159;" horiz-adv-x="302" 
d="M40 342h100v-53q17 35 44 48.5t54 13.5q18 0 31 -4.5t23 -10.5l-32 -86q-20 11 -43 11q-36 0 -56.5 -23t-20.5 -77v-161h-100v342zM37 548h79l52 -43l53 43h79l-129 -152h-5z" />
    <glyph glyph-name="Sacute" unicode="&#x15a;" horiz-adv-x="531" 
d="M112 179q48 -92 154 -92q54 0 87 23.5t33 65.5q0 24 -8.5 41t-23 29.5t-34.5 22.5t-42 20l-47 21q-38 16 -68.5 35t-53 43t-34.5 54t-12 70q0 39 14 71.5t38.5 56t59.5 36.5t77 13q63 0 110 -24t84 -83l-81 -53q-20 33 -46.5 49.5t-64.5 16.5q-42 0 -64.5 -22t-22.5 -57
q0 -20 6.5 -35t19.5 -27t33 -23t48 -23l47 -21q39 -17 70.5 -35.5t54 -42.5t34.5 -55.5t12 -74.5q0 -47 -17 -82t-47 -58.5t-71.5 -35.5t-89.5 -12q-87 0 -148.5 38.5t-96.5 104.5zM273 877h113l-85 -152h-78z" />
    <glyph glyph-name="sacute" unicode="&#x15b;" horiz-adv-x="327" 
d="M164 -9q-43 0 -83 17t-71 51l63 56q36 -43 89 -43q27 0 38.5 7t11.5 18q0 12 -12 19t-54 16q-54 11 -83.5 37t-29.5 74t34 78t92 30q41 0 70.5 -12t55.5 -35l-53 -61q-13 13 -31 20.5t-39 7.5q-20 0 -29.5 -7t-9.5 -17q0 -13 13.5 -19.5t56.5 -14.5q58 -11 86 -39t28 -70
q0 -52 -36 -82.5t-107 -30.5zM173 548h113l-85 -152h-78z" />
    <glyph glyph-name="Scircumflex" unicode="&#x15c;" horiz-adv-x="531" 
d="M112 179q48 -92 154 -92q54 0 87 23.5t33 65.5q0 24 -8.5 41t-23 29.5t-34.5 22.5t-42 20l-47 21q-38 16 -68.5 35t-53 43t-34.5 54t-12 70q0 39 14 71.5t38.5 56t59.5 36.5t77 13q63 0 110 -24t84 -83l-81 -53q-20 33 -46.5 49.5t-64.5 16.5q-42 0 -64.5 -22t-22.5 -57
q0 -20 6.5 -35t19.5 -27t33 -23t48 -23l47 -21q39 -17 70.5 -35.5t54 -42.5t34.5 -55.5t12 -74.5q0 -47 -17 -82t-47 -58.5t-71.5 -35.5t-89.5 -12q-87 0 -148.5 38.5t-96.5 104.5zM260 882h5l129 -152h-79l-52 43l-53 -43h-79z" />
    <glyph glyph-name="scircumflex" unicode="&#x15d;" horiz-adv-x="327" 
d="M164 -9q-43 0 -83 17t-71 51l63 56q36 -43 89 -43q27 0 38.5 7t11.5 18q0 12 -12 19t-54 16q-54 11 -83.5 37t-29.5 74t34 78t92 30q41 0 70.5 -12t55.5 -35l-53 -61q-13 13 -31 20.5t-39 7.5q-20 0 -29.5 -7t-9.5 -17q0 -13 13.5 -19.5t56.5 -14.5q58 -11 86 -39t28 -70
q0 -52 -36 -82.5t-107 -30.5zM160 551h5l129 -152h-79l-52 43l-53 -43h-79z" />
    <glyph glyph-name="Scedilla" unicode="&#x15e;" horiz-adv-x="531" 
d="M279 -200q-36 0 -59 14t-34 34l51 31q5 -9 12 -15t21 -6q11 0 19.5 6t8.5 20q0 27 -31 27h-28v81q-76 6 -130.5 44t-86.5 98l90 45q48 -92 154 -92q54 0 87 23.5t33 65.5q0 24 -8.5 41t-23 29.5t-34.5 22.5t-42 20l-47 21q-38 16 -68.5 35t-53 43t-34.5 54t-12 70
q0 39 14 71.5t38.5 56t59.5 36.5t77 13q130 0 194 -107l-81 -53q-20 33 -46.5 49.5t-64.5 16.5q-42 0 -64.5 -22t-22.5 -57q0 -20 6.5 -35t19.5 -27t33 -23t48 -23l47 -21q39 -17 70.5 -35.5t54 -42.5t34.5 -55.5t12 -74.5q0 -44 -14.5 -77t-40.5 -56.5t-62 -37t-79 -16.5
v-35q29 -5 48.5 -24.5t19.5 -55.5q0 -18 -7 -32.5t-19 -24t-27.5 -15t-31.5 -5.5z" />
    <glyph glyph-name="scedilla" unicode="&#x15f;" horiz-adv-x="327" 
d="M178 -200q-36 0 -59 14t-34 34l51 31q5 -9 12 -15t21 -6q11 0 19.5 6t8.5 20q0 27 -31 27h-28v82q-36 5 -69 21t-59 45l63 56q36 -43 89 -43q27 0 38.5 7t11.5 18q0 12 -12 19t-54 16q-54 11 -83.5 37t-29.5 74t34 78t92 30q41 0 70.5 -12t55.5 -35l-53 -61
q-13 13 -31 20.5t-39 7.5q-20 0 -29.5 -7t-9.5 -17q0 -13 13.5 -19.5t56.5 -14.5q58 -11 86 -39t28 -70q0 -46 -28.5 -75t-83.5 -36v-36q29 -5 48.5 -24.5t19.5 -55.5q0 -18 -7 -32.5t-19 -24t-27.5 -15t-31.5 -5.5z" />
    <glyph glyph-name="Scaron" unicode="&#x160;" horiz-adv-x="531" 
d="M112 179q48 -92 154 -92q54 0 87 23.5t33 65.5q0 24 -8.5 41t-23 29.5t-34.5 22.5t-42 20l-47 21q-38 16 -68.5 35t-53 43t-34.5 54t-12 70q0 39 14 71.5t38.5 56t59.5 36.5t77 13q63 0 110 -24t84 -83l-81 -53q-20 33 -46.5 49.5t-64.5 16.5q-42 0 -64.5 -22t-22.5 -57
q0 -20 6.5 -35t19.5 -27t33 -23t48 -23l47 -21q39 -17 70.5 -35.5t54 -42.5t34.5 -55.5t12 -74.5q0 -47 -17 -82t-47 -58.5t-71.5 -35.5t-89.5 -12q-87 0 -148.5 38.5t-96.5 104.5zM131 878h79l52 -43l53 43h79l-129 -152h-5z" />
    <glyph glyph-name="scaron" unicode="&#x161;" horiz-adv-x="327" 
d="M164 -9q-43 0 -83 17t-71 51l63 56q36 -43 89 -43q27 0 38.5 7t11.5 18q0 12 -12 19t-54 16q-54 11 -83.5 37t-29.5 74t34 78t92 30q41 0 70.5 -12t55.5 -35l-53 -61q-13 13 -31 20.5t-39 7.5q-20 0 -29.5 -7t-9.5 -17q0 -13 13.5 -19.5t56.5 -14.5q58 -11 86 -39t28 -70
q0 -52 -36 -82.5t-107 -30.5zM31 548h79l52 -43l53 43h79l-129 -152h-5z" />
    <glyph glyph-name="Tcommaaccent" unicode="&#x162;" horiz-adv-x="559" 
d="M226 585h-202v95h511v-95h-202v-585h-25v-43q29 -5 48.5 -24.5t19.5 -55.5q0 -18 -7 -32.5t-19 -24t-27.5 -15t-31.5 -5.5q-36 0 -59 14t-34 34l51 31q5 -9 12 -15t21 -6q11 0 19.5 6t8.5 20q0 27 -31 27h-28v89h-25v585z" />
    <glyph glyph-name="tcommaaccent" unicode="&#x163;" horiz-adv-x="268" 
d="M169 -200q-36 0 -59 14t-34 34l51 31q5 -9 12 -15t21 -6q11 0 19.5 6t8.5 20q0 27 -31 27h-28v86q-32 9 -51 37.5t-19 83.5v141h-40v83h40v223h100v-223h80v-83h-80v-139q0 -26 7.5 -34.5t21.5 -8.5q9 0 16.5 3.5t13.5 8.5l39 -70q-11 -10 -28.5 -17.5t-42.5 -9.5v-35
q29 -5 48.5 -24.5t19.5 -55.5q0 -18 -7 -32.5t-19 -24t-27.5 -15t-31.5 -5.5z" />
    <glyph glyph-name="Tcaron" unicode="&#x164;" horiz-adv-x="559" 
d="M226 585h-202v95h511v-95h-202v-585h-107v585zM148 877h79l52 -43l53 43h79l-129 -152h-5z" />
    <glyph glyph-name="tcaron" unicode="&#x165;" horiz-adv-x="334" 
d="M244 560q-16 8 -29 23.5t-13 38.5q0 29 20.5 48t47.5 19q26 0 46.5 -18.5t20.5 -47.5q0 -20 -6 -36.5t-17 -33.5l-53 -85h-51zM19 259v83h40v223h100v-223h80v-83h-80v-139q0 -26 7.5 -34.5t21.5 -8.5q9 0 16.5 3.5t13.5 8.5l39 -70q-13 -11 -33.5 -19.5t-52.5 -8.5
q-49 0 -80.5 28t-31.5 99v141h-40z" />
    <glyph glyph-name="Tbar" unicode="&#x166;" horiz-adv-x="559" 
d="M109 375h117v210h-202v95h511v-95h-202v-210h117v-82h-117v-293h-107v293h-117v82z" />
    <glyph glyph-name="tbar" unicode="&#x167;" horiz-adv-x="278" 
d="M24 259v83h40v223h100v-223h80v-83h-80v-48h80v-82h-80v-9q0 -26 7.5 -34.5t21.5 -8.5q9 0 16.5 3.5t13.5 8.5l39 -70q-13 -11 -33.5 -19.5t-52.5 -8.5q-49 0 -80.5 28t-31.5 99v11h-39v82h39v48h-40z" />
    <glyph glyph-name="Utilde" unicode="&#x168;" horiz-adv-x="659" 
d="M396 739q-18 0 -34 4t-30 9t-26 9t-22 4q-12 0 -18 -6t-11 -23l-68 9q7 47 30.5 74.5t58.5 27.5q18 0 34 -4t30 -9t26 -9t22 -4q12 0 18 6t11 23l68 -9q-7 -47 -30.5 -74.5t-58.5 -27.5zM330 -9q-56 0 -103.5 15.5t-82 46.5t-54.5 78t-20 109v440h107v-434q0 -82 39 -120
t114 -38q74 0 113 38t39 120v434h107v-440q0 -62 -20 -109t-54.5 -78t-82 -46.5t-102.5 -15.5z" />
    <glyph glyph-name="utilde" unicode="&#x169;" horiz-adv-x="413" 
d="M166 -9q-57 0 -93 37.5t-36 106.5v207h100v-200q0 -29 15 -45t46 -16q36 0 55.5 19.5t19.5 57.5v184h100v-342h-100v44q-17 -28 -44 -40.5t-63 -12.5zM266 408q-17 0 -29.5 4.5t-22.5 9.5t-18.5 9.5t-17.5 4.5t-15 -5t-11 -22l-68 9q7 47 30 73.5t56 26.5q17 0 29.5 -4.5
t22.5 -9.5t18.5 -9.5t17.5 -4.5t15 5t11 22l68 -9q-7 -47 -30 -73.5t-56 -26.5z" />
    <glyph glyph-name="Umacron" unicode="&#x16a;" horiz-adv-x="659" 
d="M223 814h212v-76h-212v76zM330 -9q-56 0 -103.5 15.5t-82 46.5t-54.5 78t-20 109v440h107v-434q0 -82 39 -120t114 -38q74 0 113 38t39 120v434h107v-440q0 -62 -20 -109t-54.5 -78t-82 -46.5t-102.5 -15.5z" />
    <glyph glyph-name="umacron" unicode="&#x16b;" horiz-adv-x="413" 
d="M101 497h212v-76h-212v76zM166 -9q-57 0 -93 37.5t-36 106.5v207h100v-200q0 -29 15 -45t46 -16q36 0 55.5 19.5t19.5 57.5v184h100v-342h-100v44q-17 -28 -44 -40.5t-63 -12.5z" />
    <glyph glyph-name="Ubreve" unicode="&#x16c;" horiz-adv-x="659" 
d="M330 -9q-56 0 -103.5 15.5t-82 46.5t-54.5 78t-20 109v440h107v-434q0 -82 39 -120t114 -38q74 0 113 38t39 120v434h107v-440q0 -62 -20 -109t-54.5 -78t-82 -46.5t-102.5 -15.5zM329 728q-55 0 -87 30.5t-40 74.5l80 12q5 -18 16 -28.5t31 -10.5t31 10.5t16 28.5
l80 -12q-8 -44 -40 -74.5t-87 -30.5z" />
    <glyph glyph-name="ubreve" unicode="&#x16d;" horiz-adv-x="413" 
d="M166 -9q-57 0 -93 37.5t-36 106.5v207h100v-200q0 -29 15 -45t46 -16q36 0 55.5 19.5t19.5 57.5v184h100v-342h-100v44q-17 -28 -44 -40.5t-63 -12.5zM206 398q-55 0 -87 30.5t-40 74.5l80 12q5 -18 16 -28.5t31 -10.5t31 10.5t16 28.5l80 -12q-8 -44 -40 -74.5
t-87 -30.5z" />
    <glyph glyph-name="Uring" unicode="&#x16e;" horiz-adv-x="659" 
d="M330 -9q-56 0 -103.5 15.5t-82 46.5t-54.5 78t-20 109v440h107v-434q0 -82 39 -120t114 -38q74 0 113 38t39 120v434h107v-440q0 -62 -20 -109t-54.5 -78t-82 -46.5t-102.5 -15.5zM329 691q-19 0 -36.5 7t-30.5 19.5t-20.5 28.5t-7.5 34t7.5 34.5t20.5 29t30.5 19.5
t36.5 7t36.5 -7t30.5 -19.5t20.5 -29t7.5 -34.5t-7.5 -34t-20.5 -28.5t-30.5 -19.5t-36.5 -7zM329 745q14 0 23.5 9t9.5 26t-9.5 26.5t-23.5 9.5t-23.5 -9.5t-9.5 -26.5t9.5 -26t23.5 -9z" />
    <glyph glyph-name="uring" unicode="&#x16f;" horiz-adv-x="413" 
d="M166 -9q-57 0 -93 37.5t-36 106.5v207h100v-200q0 -29 15 -45t46 -16q36 0 55.5 19.5t19.5 57.5v184h100v-342h-100v44q-17 -28 -44 -40.5t-63 -12.5zM205 391q-19 0 -36.5 7t-30.5 19.5t-20.5 28.5t-7.5 34t7.5 34.5t20.5 29t30.5 19.5t36.5 7t36.5 -7t30.5 -19.5
t20.5 -29t7.5 -34.5t-7.5 -34t-20.5 -28.5t-30.5 -19.5t-36.5 -7zM205 445q14 0 23.5 9t9.5 26t-9.5 26.5t-23.5 9.5t-23.5 -9.5t-9.5 -26.5t9.5 -26t23.5 -9z" />
    <glyph glyph-name="Uhungarumlaut" unicode="&#x170;" horiz-adv-x="659" 
d="M330 -9q-56 0 -103.5 15.5t-82 46.5t-54.5 78t-20 109v440h107v-434q0 -82 39 -120t114 -38q74 0 113 38t39 120v434h107v-440q0 -62 -20 -109t-54.5 -78t-82 -46.5t-102.5 -15.5zM402 878h101l-68 -152h-78zM262 878h101l-68 -152h-78z" />
    <glyph glyph-name="uhungarumlaut" unicode="&#x171;" horiz-adv-x="413" 
d="M166 -9q-57 0 -93 37.5t-36 106.5v207h100v-200q0 -29 15 -45t46 -16q36 0 55.5 19.5t19.5 57.5v184h100v-342h-100v44q-17 -28 -44 -40.5t-63 -12.5zM279 548h101l-68 -152h-78zM139 548h101l-68 -152h-78z" />
    <glyph glyph-name="Uogonek" unicode="&#x172;" horiz-adv-x="659" 
d="M371 -218q-43 0 -68.5 23t-25.5 65q0 38 19.5 68t45.5 53h-12q-56 0 -103.5 15.5t-82 46.5t-54.5 78t-20 109v440h107v-434q0 -82 39 -120t114 -38q74 0 113 38t39 120v434h107v-440q0 -60 -18 -104t-50 -75q-25 -23 -51 -43.5t-49 -40.5q-23 -21 -38.5 -45t-15.5 -54
q0 -13 6.5 -18.5t15.5 -5.5t16 4t12 9l47 -47q-17 -19 -37.5 -28.5t-55.5 -9.5z" />
    <glyph glyph-name="uogonek" unicode="&#x173;" horiz-adv-x="413" 
d="M303 -218q-43 0 -68.5 23t-25.5 65q0 38 19.5 67t44.5 52v55q-17 -28 -44 -40.5t-63 -12.5q-57 0 -93 37.5t-36 106.5v207h100v-200q0 -29 15 -45t46 -16q36 0 55.5 19.5t19.5 57.5v184h100v-335q-38 -47 -56 -77t-18 -52q0 -13 6.5 -18.5t15.5 -5.5t16 4t12 9l47 -47
q-17 -19 -37.5 -28.5t-55.5 -9.5z" />
    <glyph glyph-name="Wcircumflex" unicode="&#x174;" horiz-adv-x="940" 
d="M20 680h113l146 -434l192 448h6l193 -448l143 434h106l-238 -689h-6l-201 474l-206 -474h-5zM471 878h5l129 -152h-79l-52 43l-53 -43h-79z" />
    <glyph glyph-name="wcircumflex" unicode="&#x175;" horiz-adv-x="543" 
d="M3 342h112l66 -162l91 171h3l96 -171l70 162h99l-160 -351h-4l-103 193l-108 -193h-4zM272 551h5l129 -152h-79l-52 43l-53 -43h-79z" />
    <glyph glyph-name="Ycircumflex" unicode="&#x176;" horiz-adv-x="654" 
d="M21 680h118l193 -355l190 355h112l-250 -463v-217h-107v216zM330 878h5l129 -152h-79l-52 43l-53 -43h-79z" />
    <glyph glyph-name="ycircumflex" unicode="&#x177;" horiz-adv-x="379" 
d="M3 342h112l82 -197l80 197h99l-231 -554h-100l102 243zM196 551h5l129 -152h-79l-52 43l-53 -43h-79z" />
    <glyph glyph-name="Ydieresis" unicode="&#x178;" horiz-adv-x="654" 
d="M21 680h118l193 -355l190 355h112l-250 -463v-217h-107v216zM408 726q-22 0 -39.5 16.5t-17.5 40.5t17.5 40.5t39.5 16.5q23 0 40 -16.5t17 -40.5t-17 -40.5t-40 -16.5zM246 726q-22 0 -39.5 16.5t-17.5 40.5t17.5 40.5t39.5 16.5q23 0 40 -16.5t17 -40.5t-17 -40.5
t-40 -16.5z" />
    <glyph glyph-name="Zacute" unicode="&#x179;" horiz-adv-x="598" 
d="M29 6l55 89l301 485l3 5h-304v95h476v-6l-55 -89l-301 -486l-3 -4h348v-95h-520v6zM321 877h113l-85 -152h-78z" />
    <glyph glyph-name="zacute" unicode="&#x17a;" horiz-adv-x="346" 
d="M15 4l159 255h-136v83h289v-4l-158 -255h149v-83h-303v4zM190 548h113l-85 -152h-78z" />
    <glyph glyph-name="Zdotaccent" unicode="&#x17b;" horiz-adv-x="598" 
d="M310 723q-25 0 -44 18t-19 45t19 45t44 18q26 0 44.5 -18t18.5 -45t-18.5 -45t-44.5 -18zM29 6l55 89l301 485l3 5h-304v95h476v-6l-55 -89l-301 -486l-3 -4h348v-95h-520v6z" />
    <glyph glyph-name="zdotaccent" unicode="&#x17c;" horiz-adv-x="346" 
d="M179 406q-25 0 -44 18t-19 45t19 45t44 18q26 0 44.5 -18t18.5 -45t-18.5 -45t-44.5 -18zM15 4l159 255h-136v83h289v-4l-158 -255h149v-83h-303v4z" />
    <glyph glyph-name="Zcaron" unicode="&#x17d;" horiz-adv-x="598" 
d="M29 6l55 89l301 485l3 5h-304v95h476v-6l-55 -89l-301 -486l-3 -4h348v-95h-520v6zM179 878h79l52 -43l53 43h79l-129 -152h-5z" />
    <glyph glyph-name="zcaron" unicode="&#x17e;" horiz-adv-x="346" 
d="M15 4l159 255h-136v83h289v-4l-158 -255h149v-83h-303v4zM48 548h79l52 -43l53 43h79l-129 -152h-5z" />
    <glyph glyph-name="florin" unicode="&#x192;" horiz-adv-x="336" 
d="M34 200v83h50l14 125q8 66 39.5 98t83.5 32q41 0 63 -12.5t40 -34.5l-59 -62q-7 10 -14.5 15.5t-19.5 5.5q-13 0 -21.5 -8.5t-11.5 -32.5l-14 -126h72v-83h-82l-47 -412h-100l47 412h-40z" />
    <glyph glyph-name="uni01F0" unicode="&#x1f0;" horiz-adv-x="184" 
d="M32 -222q-36 0 -58.5 11t-36.5 27l49 61q6 -5 13.5 -9t15.5 -4q27 0 27 31v447h100v-444q0 -58 -28.5 -89t-81.5 -31zM-37 548h79l52 -43l53 43h79l-129 -152h-5z" />
    <glyph glyph-name="Scommaaccent" unicode="&#x218;" horiz-adv-x="531" 
d="M242 -165q-16 8 -29 23.5t-13 38.5q0 29 20.5 48t47.5 19q26 0 46.5 -18.5t20.5 -47.5q0 -20 -6 -36.5t-17 -33.5l-53 -85h-51zM112 179q48 -92 154 -92q54 0 87 23.5t33 65.5q0 24 -8.5 41t-23 29.5t-34.5 22.5t-42 20l-47 21q-38 16 -68.5 35t-53 43t-34.5 54t-12 70
q0 39 14 71.5t38.5 56t59.5 36.5t77 13q63 0 110 -24t84 -83l-81 -53q-20 33 -46.5 49.5t-64.5 16.5q-42 0 -64.5 -22t-22.5 -57q0 -20 6.5 -35t19.5 -27t33 -23t48 -23l47 -21q39 -17 70.5 -35.5t54 -42.5t34.5 -55.5t12 -74.5q0 -47 -17 -82t-47 -58.5t-71.5 -35.5
t-89.5 -12q-87 0 -148.5 38.5t-96.5 104.5z" />
    <glyph glyph-name="scommaaccent" unicode="&#x219;" horiz-adv-x="327" 
d="M141 -165q-16 8 -29 23.5t-13 38.5q0 29 20.5 48t47.5 19q26 0 46.5 -18.5t20.5 -47.5q0 -20 -6 -36.5t-17 -33.5l-53 -85h-51zM164 -9q-43 0 -83 17t-71 51l63 56q36 -43 89 -43q27 0 38.5 7t11.5 18q0 12 -12 19t-54 16q-54 11 -83.5 37t-29.5 74t34 78t92 30
q41 0 70.5 -12t55.5 -35l-53 -61q-13 13 -31 20.5t-39 7.5q-20 0 -29.5 -7t-9.5 -17q0 -13 13.5 -19.5t56.5 -14.5q58 -11 86 -39t28 -70q0 -52 -36 -82.5t-107 -30.5z" />
    <glyph glyph-name="uni021A" unicode="&#x21a;" horiz-adv-x="559" 
d="M254 -165q-16 8 -29 23.5t-13 38.5q0 29 20.5 48t47.5 19q26 0 46.5 -18.5t20.5 -47.5q0 -20 -6 -36.5t-17 -33.5l-53 -85h-51zM226 585h-202v95h511v-95h-202v-585h-107v585z" />
    <glyph glyph-name="uni021B" unicode="&#x21b;" horiz-adv-x="268" 
d="M128 -165q-16 8 -29 23.5t-13 38.5q0 29 20.5 48t47.5 19q26 0 46.5 -18.5t20.5 -47.5q0 -20 -6 -36.5t-17 -33.5l-53 -85h-51zM19 259v83h40v223h100v-223h80v-83h-80v-139q0 -26 7.5 -34.5t21.5 -8.5q9 0 16.5 3.5t13.5 8.5l39 -70q-13 -11 -33.5 -19.5t-52.5 -8.5
q-49 0 -80.5 28t-31.5 99v141h-40z" />
    <glyph glyph-name="uni0237" unicode="&#x237;" horiz-adv-x="184" 
d="M32 -222q-36 0 -58.5 11t-36.5 27l49 61q6 -5 13.5 -9t15.5 -4q27 0 27 31v447h100v-444q0 -58 -28.5 -89t-81.5 -31z" />
    <glyph glyph-name="uni02B9" unicode="&#x2b9;" 
d="M259 540h113l-85 -152h-78z" />
    <glyph glyph-name="uni02BB" unicode="&#x2bb;" 
d="M250 459q-26 0 -46.5 18.5t-20.5 47.5q0 20 6 36.5t17 33.5l53 85h51l-34 -92q16 -8 29 -23.5t13 -38.5q0 -29 -20.5 -48t-47.5 -19z" />
    <glyph glyph-name="circumflex" unicode="&#x2c6;" 
d="M247 551h5l129 -152h-79l-52 43l-53 -43h-79z" />
    <glyph glyph-name="caron" unicode="&#x2c7;" 
d="M119 548h79l52 -43l53 43h79l-129 -152h-5z" />
    <glyph glyph-name="breve" unicode="&#x2d8;" 
d="M250 398q-55 0 -87 30.5t-40 74.5l80 12q5 -18 16 -28.5t31 -10.5t31 10.5t16 28.5l80 -12q-8 -44 -40 -74.5t-87 -30.5z" />
    <glyph glyph-name="dotaccent" unicode="&#x2d9;" 
d="M250 406q-25 0 -44 18t-19 45t19 45t44 18q26 0 44.5 -18t18.5 -45t-18.5 -45t-44.5 -18z" />
    <glyph glyph-name="ring" unicode="&#x2da;" 
d="M250 391q-19 0 -36.5 7t-30.5 19.5t-20.5 28.5t-7.5 34t7.5 34.5t20.5 29t30.5 19.5t36.5 7t36.5 -7t30.5 -19.5t20.5 -29t7.5 -34.5t-7.5 -34t-20.5 -28.5t-30.5 -19.5t-36.5 -7zM250 445q14 0 23.5 9t9.5 26t-9.5 26.5t-23.5 9.5t-23.5 -9.5t-9.5 -26.5t9.5 -26
t23.5 -9z" />
    <glyph glyph-name="ogonek" unicode="&#x2db;" 
d="M244 -218q-43 0 -68.5 23t-25.5 65t24.5 74t52.5 56h81q-33 -42 -50.5 -71t-17.5 -51q0 -13 6.5 -18.5t15.5 -5.5t16 4t12 9l47 -47q-17 -19 -37.5 -28.5t-55.5 -9.5z" />
    <glyph glyph-name="tilde" unicode="&#x2dc;" 
d="M298 408q-17 0 -29.5 4.5t-22.5 9.5t-18.5 9.5t-17.5 4.5t-15 -5t-11 -22l-68 9q7 47 30 73.5t56 26.5q17 0 29.5 -4.5t22.5 -9.5t18.5 -9.5t17.5 -4.5t15 5t11 22l68 -9q-7 -47 -30 -73.5t-56 -26.5z" />
    <glyph glyph-name="hungarumlaut" unicode="&#x2dd;" 
d="M328 548h101l-68 -152h-78zM188 548h101l-68 -152h-78z" />
    <glyph glyph-name="gravecomb" unicode="&#x300;" 
d="M128 538h113l50 -152h-78z" />
    <glyph glyph-name="acutecomb" unicode="&#x301;" 
d="M259 540h113l-85 -152h-78z" />
    <glyph glyph-name="tildecomb" unicode="&#x303;" 
d="M298 385q-17 0 -29.5 4.5t-22.5 9.5t-18.5 9.5t-17.5 4.5t-15 -5t-11 -22l-68 9q7 47 30 73.5t56 26.5q17 0 29.5 -4.5t22.5 -9.5t18.5 -9.5t17.5 -4.5t15 5t11 22l68 -9q-7 -47 -30 -73.5t-56 -26.5z" />
    <glyph glyph-name="pi" unicode="&#x3c0;" horiz-adv-x="396" 
d="M40 342h316v-342h-100v259h-116v-259h-100v342z" />
    <glyph glyph-name="endash" unicode="&#x2013;" horiz-adv-x="400" 
d="M33 256h334v-91h-334v91z" />
    <glyph glyph-name="emdash" unicode="&#x2014;" horiz-adv-x="640" 
d="M33 256h574v-91h-574v91z" />
    <glyph glyph-name="quoteleft" unicode="&#x2018;" horiz-adv-x="213" 
d="M106 459q-26 0 -46.5 18.5t-20.5 47.5q0 20 6 36.5t17 33.5l53 85h51l-34 -92q16 -8 29 -23.5t13 -38.5q0 -29 -20.5 -48t-47.5 -19z" />
    <glyph glyph-name="quoteright" unicode="&#x2019;" horiz-adv-x="213" 
d="M81 560q-16 8 -29 23.5t-13 38.5q0 29 20.5 48t47.5 19q26 0 46.5 -18.5t20.5 -47.5q0 -20 -6 -36.5t-17 -33.5l-53 -85h-51z" />
    <glyph glyph-name="quotesinglbase" unicode="&#x201a;" horiz-adv-x="213" 
d="M81 0q-16 8 -29 23.5t-13 38.5q0 29 20.5 48t47.5 19q26 0 46.5 -18.5t20.5 -47.5q0 -20 -6 -36.5t-17 -33.5l-53 -85h-51z" />
    <glyph glyph-name="quotedblleft" unicode="&#x201c;" horiz-adv-x="390" 
d="M283 459q-26 0 -46.5 18.5t-20.5 47.5q0 20 6 36.5t17 33.5l53 85h51l-34 -92q16 -8 29 -23.5t13 -38.5q0 -29 -20.5 -48t-47.5 -19zM106 459q-26 0 -46.5 18.5t-20.5 47.5q0 20 5.5 36t17.5 34l53 85h51l-34 -92q16 -8 29 -23.5t13 -38.5q0 -29 -20.5 -48t-47.5 -19z
" />
    <glyph glyph-name="quotedblright" unicode="&#x201d;" horiz-adv-x="390" 
d="M258 560q-16 8 -29 23.5t-13 38.5q0 29 20.5 48t47.5 19q26 0 46.5 -18.5t20.5 -47.5q0 -20 -6 -36.5t-17 -33.5l-53 -85h-51zM81 560q-16 8 -29 23.5t-13 38.5q0 29 20.5 48t47.5 19q26 0 46.5 -18.5t20.5 -47.5q0 -20 -6 -36.5t-17 -33.5l-53 -85h-51z" />
    <glyph glyph-name="quotedblbase" unicode="&#x201e;" horiz-adv-x="390" 
d="M258 0q-16 8 -29 23.5t-13 38.5q0 29 20.5 48t47.5 19q26 0 46.5 -18.5t20.5 -47.5q0 -20 -6 -36.5t-17 -33.5l-53 -85h-51zM81 0q-16 8 -29 23.5t-13 38.5q0 29 20.5 48t47.5 19q26 0 46.5 -18.5t20.5 -47.5q0 -20 -6 -36.5t-17 -33.5l-53 -85h-51z" />
    <glyph glyph-name="dagger" unicode="&#x2020;" horiz-adv-x="285" 
d="M27 511v86h68v83h95v-83h68v-86h-68v-217h-95v217h-68z" />
    <glyph glyph-name="daggerdbl" unicode="&#x2021;" horiz-adv-x="285" 
d="M27 515v82h68v83h95v-83h68v-82h-68v-56h68v-82h-68v-83h-95v83h-68v82h68v56h-68z" />
    <glyph glyph-name="bullet" unicode="&#x2022;" horiz-adv-x="258" 
d="M129 164q-19 0 -36.5 7.5t-30.5 20.5t-21 30.5t-8 37.5q0 21 8 38.5t21 30t30.5 20t36.5 7.5t36.5 -7.5t30.5 -20t21 -30t8 -38.5q0 -20 -8 -37.5t-21 -30.5t-30.5 -20.5t-36.5 -7.5z" />
    <glyph glyph-name="ellipsis" unicode="&#x2026;" horiz-adv-x="614" 
d="M508 -6q-28 0 -49 19.5t-21 50.5t21 50.5t49 19.5t49 -19.5t21 -50.5t-21 -50.5t-49 -19.5zM307 -6q-28 0 -49 19.5t-21 50.5t21 50.5t49 19.5t49 -19.5t21 -50.5t-21 -50.5t-49 -19.5zM106 -6q-28 0 -49 19.5t-21 50.5t21 50.5t49 19.5t49 -19.5t21 -50.5t-21 -50.5
t-49 -19.5z" />
    <glyph glyph-name="perthousand" unicode="&#x2030;" horiz-adv-x="1087" 
d="M170 242q-30 0 -57.5 11t-48 30.5t-33 47t-12.5 59.5t12.5 59.5t33 47t48 30.5t57.5 11t57.5 -11t48 -30.5t33 -47t12.5 -59.5t-12.5 -59.5t-33 -47t-48 -30.5t-57.5 -11zM917 -9q-30 0 -57.5 11t-48 30.5t-33 47t-12.5 59.5t12.5 59.5t33 47t48 30.5t57.5 11t57.5 -11
t48 -30.5t33 -47t12.5 -59.5t-12.5 -59.5t-33 -47t-48 -30.5t-57.5 -11zM582 -9q-30 0 -57.5 11t-48 30.5t-33 47t-12.5 59.5t12.5 59.5t33 47t48 30.5t57.5 11t57.5 -11t48 -30.5t33 -47t12.5 -59.5t-12.5 -59.5t-33 -47t-48 -30.5t-57.5 -11zM170 327q24 0 42 17t18 46
t-18 46t-42 17t-42 -17t-18 -46t18 -46t42 -17zM917 76q24 0 42 17t18 46t-18 46t-42 17t-42 -17t-18 -46t18 -46t42 -17zM582 76q24 0 42 17t18 46t-18 46t-42 17t-42 -17t-18 -46t18 -46t42 -17zM479 530h103l-309 -530h-103z" />
    <glyph glyph-name="guilsinglleft" unicode="&#x2039;" horiz-adv-x="238" 
d="M28 170v4l77 136h105l-77 -138l77 -140h-105z" />
    <glyph glyph-name="guilsinglright" unicode="&#x203a;" horiz-adv-x="238" 
d="M105 170l-77 140h105l77 -138v-4l-77 -136h-105z" />
    <glyph glyph-name="fraction" unicode="&#x2044;" horiz-adv-x="372" 
d="M289 530h103l-309 -530h-103z" />
    <glyph glyph-name="Euro" unicode="&#x20ac;" horiz-adv-x="594" 
d="M21 291v74h80q15 39 41 71t60 54.5t73.5 35t82.5 12.5q65 0 117 -24.5t84 -72.5l-72 -59q-24 35 -56 50.5t-73 15.5q-48 0 -85.5 -22t-59.5 -61h179v-74h-202q-1 -6 -1 -12.5v-13.5v-12t1 -12h202v-74h-180q21 -41 59 -63.5t87 -22.5q54 0 87.5 20.5t53.5 50.5l76 -56
q-35 -52 -88 -78.5t-129 -26.5q-43 0 -83 13t-73.5 36t-59.5 55.5t-41 71.5h-80v74h63q-1 6 -1 12v12v13t1 13h-63z" />
    <glyph glyph-name="uni2117" unicode="&#x2117;" horiz-adv-x="786" 
d="M361 149h-105v397h141q87 0 132.5 -42.5t45.5 -116.5q0 -71 -46 -113t-132 -42h-36v-83zM397 319q39 0 56.5 16.5t17.5 51.5q0 29 -17.5 46t-56.5 17h-36v-131h36zM393 -8q-71 0 -134 26t-111 72.5t-76 110.5t-28 139t28 139t76 110.5t111 72.5t134 26q70 0 133.5 -26
t111.5 -72.5t76 -110.5t28 -139t-28 -139t-76 -110.5t-111.5 -72.5t-133.5 -26zM393 46q60 0 113.5 22t93 61.5t62.5 93.5t23 117t-23 117t-62.5 93.5t-93 61.5t-113.5 22t-113.5 -22t-93 -61.5t-62.5 -93.5t-23 -117t23 -117t62.5 -93.5t93 -61.5t113.5 -22z" />
    <glyph glyph-name="uni2120" unicode="&#x2120;" horiz-adv-x="533" 
d="M254 683h6l112 -111l111 111h6v-231h-67v94l-50 -55l-50 55v-94h-68v231zM76 531q8 -17 20.5 -24t26.5 -7q15 0 20 4t5 11q0 9 -9 14.5t-32 16.5q-34 15 -49 30t-15 45t22 48t55 18q27 0 46 -10.5t36 -36.5l-47 -29q-15 24 -33 24q-15 0 -15 -13q0 -7 9.5 -13.5
t34.5 -17.5q32 -14 47 -29t15 -45q0 -35 -25.5 -52t-63.5 -17q-35 0 -58 13.5t-41 46.5z" />
    <glyph glyph-name="trademark" unicode="&#x2122;" horiz-adv-x="533" 
d="M254 683h6l112 -111l111 111h6v-231h-67v94l-50 -55l-50 55v-94h-68v231zM26 624v56h190v-56h-60v-172h-68v172h-62z" />
    <glyph glyph-name="Omega" unicode="&#x2126;" horiz-adv-x="784" 
d="M632 340q0 54 -17.5 100t-49.5 80t-76 53t-97 19t-97 -19t-76 -53t-49.5 -80t-17.5 -100q0 -96 50.5 -160.5t132.5 -94.5v-85h-285v95h109q-57 45 -87.5 106t-30.5 139q0 75 27.5 139t75 110.5t111.5 73t137 26.5t137 -26.5t111.5 -73t75 -110.5t27.5 -139
q0 -78 -30 -139t-88 -106h109v-95h-285v85q82 30 132.5 94.5t50.5 160.5z" />
    <glyph glyph-name="partialdiff" unicode="&#x2202;" horiz-adv-x="457" 
d="M317 299q-10 100 -54.5 188t-123.5 161l53 60q52 -40 94.5 -92.5t71.5 -112.5t45 -126t16 -133q0 -45 -10 -90.5t-32.5 -81.5t-59 -58t-90.5 -22q-35 0 -68.5 12.5t-60.5 35t-43.5 55t-16.5 73.5q0 34 11 67.5t33 60t53.5 42.5t72.5 16q32 0 61.5 -12.5t47.5 -42.5z
M140 171q0 -16 4.5 -32.5t15 -30t27 -22.5t38.5 -9q19 0 34.5 8.5t27 22t17.5 31t6 36.5q0 36 -23 64t-62 28q-19 0 -34.5 -8t-27 -21.5t-17.5 -31t-6 -35.5z" />
    <glyph glyph-name="Delta" unicode="&#x2206;" horiz-adv-x="645" 
d="M24 6l295 688h6l296 -688v-6h-597v6zM167 95h306l-152 368z" />
    <glyph glyph-name="product" unicode="&#x220f;" horiz-adv-x="674" 
d="M600 680v-680h-107v585h-312v-585h-107v680h526z" />
    <glyph glyph-name="summation" unicode="&#x2211;" horiz-adv-x="580" 
d="M370 353l-169 -258h328v-95h-500v6l225 344l-212 324v6h473v-95h-292l147 -226v-6z" />
    <glyph glyph-name="minus" unicode="&#x2212;" horiz-adv-x="361" 
d="M36 304h289v-90h-289v90z" />
    <glyph glyph-name="radical" unicode="&#x221a;" horiz-adv-x="471" 
d="M14 342h131l51 -148l165 516h105l-239 -710h-60l-102 264h-51v78z" />
    <glyph glyph-name="infinity" unicode="&#x221e;" horiz-adv-x="582" 
d="M150 378q27 0 47 -6t35.5 -17t29.5 -27t29 -36q15 21 29 37t29.5 27t35.5 16.5t47 5.5t49.5 -11t38 -30.5t24.5 -47t9 -59.5t-9 -59.5t-24.5 -47t-38 -30.5t-49.5 -11t-46.5 6t-35.5 17t-29.5 27t-29.5 36q-16 -21 -30 -37t-30 -27t-35 -16.5t-46 -5.5t-49.5 11t-38 30.5
t-24.5 47t-9 59.5t9 59.5t24.5 47t38 30.5t49.5 11zM162 167q26 0 43.5 17t38.5 45q-23 30 -40 47t-42 17q-19 0 -30.5 -17t-11.5 -46t12 -46t30 -17zM420 293q-24 0 -41.5 -17t-40.5 -47q22 -30 39 -46t43 -16q18 0 30 17t12 46t-11.5 46t-30.5 17z" />
    <glyph glyph-name="integral" unicode="&#x222b;" horiz-adv-x="218" 
d="M59 658q0 75 39.5 112.5t114.5 37.5h10v-85h-10q-30 0 -42 -17.5t-12 -44.5v-741q0 -75 -39.5 -112.5t-114.5 -37.5h-10v85h10q30 0 42 17.5t12 44.5v741z" />
    <glyph glyph-name="approxequal" unicode="&#x2248;" horiz-adv-x="362" 
d="M345 282q-3 -18 -11 -37.5t-20.5 -35.5t-30 -26.5t-39.5 -10.5q-15 0 -28 5t-24 10.5l-21 10.5t-20 5q-14 0 -21 -7t-12 -20l-78 12q3 18 11 37.5t20.5 35.5t29.5 26.5t39 10.5q16 0 28.5 -5t23 -11t20.5 -11t21 -5q15 0 22.5 6.5t12.5 20.5zM334 418q-3 -18 -11 -37.5
t-20.5 -35.5t-30 -26.5t-39.5 -10.5q-15 0 -28 5t-24 10.5l-21 10.5t-20 5q-14 0 -21 -7t-12 -20l-78 12q3 18 11 37.5t20.5 35.5t29.5 26.5t39 10.5q16 0 28.5 -5t23 -11t20.5 -11t21 -5q15 0 22.5 6.5t12.5 20.5z" />
    <glyph glyph-name="notequal" unicode="&#x2260;" horiz-adv-x="361" 
d="M277 429h48v-90h-85l-18 -45h103v-90h-140l-22 -54h-92l22 54h-57v90h94l18 45h-112v90h149l23 54h92z" />
    <glyph glyph-name="lessequal" unicode="&#x2264;" horiz-adv-x="324" 
d="M26 335v10l263 128v-83l-110 -51l110 -51v-83zM32 184h257v-74h-257v74z" />
    <glyph glyph-name="greaterequal" unicode="&#x2265;" horiz-adv-x="324" 
d="M35 205v83l110 51l-110 51v83l263 -128v-10zM292 110h-257v74h257v-74z" />
    <glyph glyph-name="lozenge" unicode="&#x25ca;" horiz-adv-x="393" 
d="M383 342l-183 -351h-4l-186 351l186 351h4zM283 342l-79 166l-82 -166l82 -166z" />
    <glyph glyph-name="ff" unicode="&#xfb00;" horiz-adv-x="468" 
d="M367 0h-100v259h-108v-259h-100v259h-40v83h40v249q0 64 30.5 95.5t79.5 31.5q31 0 50.5 -6.5t34.5 -17.5l-42 -74q-5 5 -11 7.5t-17 2.5q-10 0 -17.5 -8.5t-7.5 -29.5v-250h108v248q0 64 30.5 96t84.5 32q36 0 58.5 -10.5t38.5 -28.5l-56 -63q-11 14 -31 14
q-10 0 -17.5 -8t-7.5 -31v-249h82v-83h-82v-259z" />
    <glyph glyph-name="fi" unicode="&#xfb01;" horiz-adv-x="404" 
d="M312 406q-25 0 -44 18t-19 45t19 45t44 18q26 0 44.5 -18t18.5 -45t-18.5 -45t-44.5 -18zM159 0h-100v259h-40v83h40v248q0 64 30.5 96t84.5 32q36 0 58.5 -10.5t38.5 -28.5l-56 -63q-11 14 -31 14q-10 0 -17.5 -8.5t-7.5 -30.5v-249h203v-342h-100v259h-103v-259z" />
    <glyph glyph-name="fl" unicode="&#xfb02;" horiz-adv-x="409" 
d="M159 0h-100v259h-40v83h40v226q0 37 13 65.5t34 47t49 28t58 9.5q32 0 60 -9t49 -28t33 -47t12 -67v-567h-100v568q0 27 -12.5 46t-41.5 19q-30 0 -42 -17.5t-12 -44.5v-229h64v-83h-64v-259z" />
    <glyph glyph-name="ffi" unicode="&#xfb03;" horiz-adv-x="617" 
d="M525 406q-25 0 -44 18t-19 45t19 45t44 18q26 0 44.5 -18t18.5 -45t-18.5 -45t-44.5 -18zM367 0h-100v259h-108v-259h-100v259h-40v83h40v249q0 65 30.5 96t79.5 31q31 0 50.5 -6.5t34.5 -17.5l-42 -74q-5 5 -11 7.5t-17 2.5q-10 0 -17.5 -8.5t-7.5 -29.5v-250h108v248
q0 64 30.5 96t84.5 32q36 0 58.5 -10.5t38.5 -28.5l-56 -63q-11 14 -31 14q-10 0 -17.5 -8t-7.5 -31v-249h208v-342h-100v259h-108v-259z" />
    <glyph glyph-name="ffl" unicode="&#xfb04;" horiz-adv-x="617" 
d="M367 0h-100v259h-108v-259h-100v259h-40v83h40v249q0 65 30.5 96t79.5 31q31 0 50.5 -6.5t34.5 -17.5l-42 -74q-5 5 -11 7.5t-17 2.5q-10 0 -17.5 -8.5t-7.5 -29.5v-250h108v226q0 37 13 65.5t34 47t49 28t58 9.5q32 0 60 -9t49 -28t33 -47t12 -67v-567h-100v568
q0 27 -12.5 46t-41.5 19q-30 0 -42 -17.5t-12 -44.5v-229h64v-83h-64v-259z" />
    <glyph glyph-name="LA" horiz-adv-x="1146" 
d="M74 680h107v-585h304l-41 -95h-370v680zM630 0h-108l298 694h6l299 -694h-113l-39 95h-304zM822 459l-113 -269h224z" />
    <glyph glyph-name="fb" horiz-adv-x="660" 
d="M223 342v-83h-64v-259h-100v259h-40v83h40v226q0 37 13 65.5t34 47t49 28t58 9.5q32 0 60 -9t49 -28t33 -47t12 -67v-264q14 23 40.5 35.5t65.5 12.5q33 0 62.5 -13.5t51.5 -37.5t34.5 -57t12.5 -72t-12.5 -72t-34.5 -57t-51.5 -37.5t-62.5 -13.5q-39 0 -65.5 12.5
t-40.5 35.5v-39h-100v568q0 27 -12.5 46t-41.5 19q-30 0 -42 -17.5t-12 -44.5v-229h64zM447 79q38 0 61 25t23 67t-23 67t-61 25t-60 -25t-22 -67t22 -67t60 -25z" />
    <glyph glyph-name="fh" horiz-adv-x="640" 
d="M223 342v-83h-64v-259h-100v259h-40v83h40v226q0 37 13 65.5t34 47t49 28t58 9.5q32 0 60 -9t49 -28t33 -47t12 -67v-269q17 27 44 40t63 13q57 0 93 -37.5t36 -106.5v-207h-100v200q0 29 -15 45t-46 16q-36 0 -55.5 -19.5t-19.5 -57.5v-184h-100v568q0 27 -12.5 46
t-41.5 19q-30 0 -42 -17.5t-12 -44.5v-229h64z" />
    <glyph glyph-name="fj" horiz-adv-x="404" 
d="M312 406q-25 0 -44 18t-19 45t19 45t44 18q26 0 44.5 -18t18.5 -45t-18.5 -45t-44.5 -18zM159 0h-100v259h-40v83h40v248q0 64 30.5 96t84.5 32q36 0 58.5 -10.5t38.5 -28.5l-56 -63q-11 14 -31 14q-10 0 -17.5 -8t-7.5 -31v-249h203v-444q0 -58 -28.5 -89t-81.5 -31
q-36 0 -58.5 11t-36.5 27l49 61q6 -5 13.5 -9t15.5 -4q27 0 27 31v364h-103v-259z" />
    <glyph glyph-name="fk" horiz-adv-x="616" 
d="M159 0h-100v259h-40v83h40v226q0 37 13 65.5t34 47t49 28t58 9.5q32 0 60 -9t49 -28t33 -47t12 -67v-358l112 133h116l-122 -140l136 -202h-119l-84 126l-39 -45v-81h-100v568q0 27 -12.5 46t-41.5 19q-30 0 -42 -17.5t-12 -44.5v-229h64v-83h-64v-259z" />
    <glyph glyph-name="ffb" horiz-adv-x="868" 
d="M159 0h-100v259h-40v83h40v249q0 65 30.5 96t79.5 31q31 0 50.5 -6.5t34.5 -17.5l-42 -74q-5 5 -11 7.5t-17 2.5q-10 0 -17.5 -8.5t-7.5 -29.5v-250h108v226q0 37 13 65.5t34 47t49 28t58 9.5q32 0 60 -9t49 -28t33 -47t12 -67v-264q14 23 40.5 35.5t65.5 12.5
q33 0 62.5 -13.5t51.5 -37.5t34.5 -57t12.5 -72t-12.5 -72t-34.5 -57t-51.5 -37.5t-62.5 -13.5q-39 0 -65.5 12.5t-40.5 35.5v-39h-100v568q0 27 -12.5 46t-41.5 19q-30 0 -42 -17.5t-12 -44.5v-229h64v-83h-64v-259h-100v259h-108v-259zM655 79q38 0 61 25t23 67t-23 67
t-61 25t-60 -25t-22 -67t22 -67t60 -25z" />
    <glyph glyph-name="fff" horiz-adv-x="676" 
d="M475 590q0 64 30.5 96t84.5 32q36 0 58.5 -10.5t38.5 -28.5l-56 -63q-11 14 -31 14q-10 0 -17.5 -8t-7.5 -31v-249h82v-83h-82v-259h-100v259h-108v-259h-100v259h-108v-259h-100v259h-40v83h40v249q0 65 30.5 96t79.5 31q31 0 50.5 -6.5t34.5 -17.5l-42 -74
q-5 5 -11 7.5t-17 2.5q-10 0 -17.5 -8.5t-7.5 -29.5v-250h108v249q0 65 30.5 96t79.5 31q31 0 50.5 -6.5t34.5 -17.5l-42 -74q-5 5 -11 7.5t-17 2.5q-10 0 -17.5 -8.5t-7.5 -29.5v-250h108v248z" />
    <glyph glyph-name="ffh" horiz-adv-x="848" 
d="M159 0h-100v259h-40v83h40v249q0 65 30.5 96t79.5 31q31 0 50.5 -6.5t34.5 -17.5l-42 -74q-5 5 -11 7.5t-17 2.5q-10 0 -17.5 -8.5t-7.5 -29.5v-250h108v226q0 37 13 65.5t34 47t49 28t58 9.5q32 0 60 -9t49 -28t33 -47t12 -67v-269q17 27 44 40t63 13q57 0 93 -37.5
t36 -106.5v-207h-100v200q0 29 -15 45t-46 16q-36 0 -55.5 -19.5t-19.5 -57.5v-184h-100v568q0 27 -12.5 46t-41.5 19q-30 0 -42 -17.5t-12 -44.5v-229h64v-83h-64v-259h-100v259h-108v-259z" />
    <glyph glyph-name="ffj" horiz-adv-x="617" 
d="M525 406q-25 0 -44 18t-19 45t19 45t44 18q26 0 44.5 -18t18.5 -45t-18.5 -45t-44.5 -18zM367 0h-100v259h-108v-259h-100v259h-40v83h40v249q0 65 30.5 96t79.5 31q31 0 50.5 -6.5t34.5 -17.5l-42 -74q-5 5 -11 7.5t-17 2.5q-10 0 -17.5 -8.5t-7.5 -29.5v-250h108v248
q0 64 30.5 96t84.5 32q36 0 58.5 -10.5t38.5 -28.5l-56 -63q-11 14 -31 14q-10 0 -17.5 -8t-7.5 -31v-249h208v-444q0 -58 -28.5 -89t-81.5 -31q-36 0 -58.5 11t-36.5 27l49 61q6 -5 13.5 -9t15.5 -4q27 0 27 31v364h-108v-259z" />
    <glyph glyph-name="ffk" horiz-adv-x="824" 
d="M367 0h-100v259h-108v-259h-100v259h-40v83h40v249q0 65 30.5 96t79.5 31q31 0 50.5 -6.5t34.5 -17.5l-42 -74q-5 5 -11 7.5t-17 2.5q-10 0 -17.5 -8.5t-7.5 -29.5v-250h108v226q0 37 13 65.5t34 47t49 28t58 9.5q32 0 60 -9t49 -28t33 -47t12 -67v-358l112 133h116
l-122 -140l136 -202h-119l-84 126l-39 -45v-81h-100v568q0 27 -12.5 46t-41.5 19q-30 0 -42 -17.5t-12 -44.5v-229h64v-83h-64v-259z" />
    <glyph glyph-name="Imacron" horiz-adv-x="261" 
d="M25 814h212v-76h-212v76zM77 680h107v-680h-107v680z" />
    </font>
</defs>
</svg>
